<?xml version="1.0" standalone="no"?>
<!DOCTYPE svg PUBLIC "-//W3C//DTD SVG 20010904//EN"
 "http://www.w3.org/TR/2001/REC-SVG-20010904/DTD/svg10.dtd">
<svg version="1.0" xmlns="http://www.w3.org/2000/svg"
 width="5000.000000pt" height="5000.000000pt" viewBox="0 0 5000.000000 5000.000000"
 preserveAspectRatio="xMidYMid meet">

<g transform="translate(0.000000,5000.000000) scale(0.100000,-0.100000)"
fill="#000000" stroke="none">
<path d="M25159 39006 c-2 -2 -65 -7 -139 -10 -131 -5 -212 -11 -295 -20 -22
-3 -96 -8 -165 -12 -69 -4 -128 -11 -131 -15 -7 -12 -62 -17 -202 -20 -62 -1
-136 -9 -165 -16 -29 -8 -57 -11 -62 -8 -6 3 -10 3 -10 -2 0 -4 -12 -8 -27 -8
-81 -2 -187 -16 -194 -26 -4 -7 -45 -13 -100 -15 -52 -3 -114 -10 -139 -16
-25 -6 -74 -14 -110 -19 -99 -12 -130 -20 -130 -33 0 -6 -5 -4 -10 4 -5 8 -10
10 -10 4 0 -10 -44 -17 -152 -27 -10 -1 -18 -5 -18 -10 0 -4 -4 -6 -8 -3 -5 3
-33 1 -63 -5 -30 -5 -61 -11 -69 -12 -9 -2 -20 -5 -25 -8 -6 -3 -30 -7 -55 -8
-24 -1 -47 -6 -50 -10 -7 -10 -49 -21 -112 -27 -28 -3 -68 -12 -90 -20 -23 -8
-58 -14 -79 -14 -20 0 -44 -6 -51 -13 -12 -12 -124 -39 -161 -39 -9 1 -29 -6
-45 -14 -15 -7 -37 -14 -48 -14 -12 0 -38 -7 -57 -15 -20 -8 -49 -15 -64 -15
-15 0 -52 -9 -81 -20 -29 -11 -60 -20 -70 -20 -9 0 -30 -7 -46 -15 -15 -8 -31
-13 -35 -10 -9 5 -75 -11 -106 -25 -42 -19 -144 -50 -175 -52 -18 -1 -35 -8
-37 -16 -3 -7 -11 -11 -19 -8 -13 5 -55 -7 -109 -30 -16 -7 -47 -16 -67 -19
-21 -3 -38 -9 -38 -13 0 -9 -97 -41 -145 -49 -16 -3 -31 -9 -33 -14 -2 -5 -19
-9 -38 -9 -19 0 -34 -4 -34 -9 0 -5 -10 -11 -22 -14 -13 -3 -54 -17 -92 -31
-38 -14 -80 -26 -92 -26 -13 0 -24 -4 -24 -8 0 -16 -115 -60 -168 -64 -21 -1
-32 -8 -32 -18 0 -13 -1 -13 -10 0 -8 13 -10 12 -10 -4 0 -11 -3 -16 -6 -13
-4 3 -16 1 -28 -5 -11 -7 -25 -11 -29 -10 -4 1 -18 -4 -30 -13 -12 -8 -36 -15
-54 -15 -17 0 -36 -6 -40 -13 -8 -13 -90 -48 -160 -68 -24 -7 -43 -15 -43 -18
0 -7 -36 -23 -114 -50 -33 -12 -63 -25 -66 -31 -4 -6 -44 -23 -90 -39 -46 -16
-86 -33 -88 -40 -2 -6 -9 -11 -15 -11 -7 0 -29 -9 -50 -20 -20 -11 -46 -20
-57 -20 -11 0 -28 -8 -38 -17 -20 -20 -86 -53 -105 -53 -23 0 -107 -45 -107
-57 0 -7 -3 -12 -7 -11 -5 1 -24 -4 -43 -11 -19 -8 -38 -13 -42 -12 -5 0 -8
-4 -8 -10 0 -5 -4 -7 -10 -4 -5 3 -21 -5 -34 -19 -13 -14 -30 -26 -37 -26 -8
-1 -32 -9 -54 -20 -22 -11 -46 -19 -52 -20 -7 0 -13 -7 -13 -15 0 -8 -7 -15
-16 -15 -24 0 -152 -58 -169 -76 -5 -6 -32 -19 -59 -29 -29 -11 -50 -25 -53
-36 -3 -11 -17 -22 -32 -25 -34 -8 -131 -57 -131 -66 0 -5 -9 -8 -20 -8 -11 0
-28 -8 -39 -19 -10 -10 -30 -21 -44 -25 -14 -3 -32 -13 -41 -21 -8 -8 -19 -15
-25 -15 -6 0 -11 -4 -11 -9 0 -5 -13 -14 -30 -21 -16 -7 -30 -16 -30 -21 0 -5
-10 -9 -23 -9 -12 0 -29 -9 -37 -20 -8 -11 -25 -20 -37 -20 -13 0 -23 -4 -23
-9 0 -5 -13 -14 -30 -21 -16 -7 -30 -16 -30 -21 0 -5 -6 -9 -13 -9 -8 0 -22
-9 -32 -20 -10 -11 -26 -20 -36 -20 -10 0 -22 -6 -26 -14 -4 -7 -27 -23 -51
-35 -24 -12 -52 -31 -63 -42 -11 -11 -23 -18 -27 -15 -5 3 -16 -6 -26 -20 -11
-13 -27 -24 -36 -24 -10 0 -23 -7 -30 -15 -7 -8 -19 -15 -27 -15 -7 0 -16 -7
-19 -15 -4 -8 -12 -15 -20 -15 -8 0 -14 -5 -14 -11 0 -5 -4 -8 -9 -5 -5 3 -11
-1 -15 -9 -3 -8 -14 -15 -25 -15 -10 0 -21 -6 -24 -14 -3 -7 -31 -26 -61 -42
-31 -15 -56 -34 -56 -41 0 -7 -9 -13 -20 -13 -11 0 -20 -4 -20 -8 0 -5 -17
-17 -37 -28 -21 -10 -49 -29 -62 -41 -13 -13 -29 -23 -36 -23 -7 0 -15 -7 -19
-15 -3 -8 -11 -15 -19 -15 -7 0 -31 -16 -53 -35 -21 -19 -43 -35 -48 -35 -5 0
-24 -16 -43 -35 -19 -20 -48 -38 -64 -42 -21 -4 -29 -12 -30 -27 0 -11 -3 -15
-6 -8 -3 8 -11 4 -25 -13 -11 -14 -26 -25 -34 -25 -8 0 -32 -17 -53 -38 -22
-21 -56 -47 -77 -57 -21 -11 -51 -32 -66 -47 -15 -16 -31 -28 -37 -28 -5 0
-21 -16 -37 -35 -15 -19 -33 -35 -40 -35 -7 0 -29 -16 -48 -35 -20 -19 -45
-35 -55 -35 -12 0 -25 -12 -33 -30 -7 -16 -17 -30 -22 -30 -5 0 -24 -11 -42
-25 -18 -14 -37 -25 -43 -25 -6 0 -11 -6 -11 -13 0 -14 -36 -42 -82 -66 -16
-8 -28 -20 -28 -27 0 -7 -14 -18 -30 -26 -17 -7 -36 -25 -43 -40 -6 -15 -23
-32 -37 -37 -28 -10 -70 -47 -70 -61 0 -6 -8 -10 -18 -10 -10 0 -25 -11 -32
-25 -7 -14 -16 -25 -19 -25 -3 0 -24 -16 -46 -35 -22 -20 -44 -39 -50 -44 -5
-5 -17 -18 -25 -30 -8 -11 -20 -21 -28 -21 -7 0 -15 -7 -18 -15 -4 -8 -15 -15
-25 -15 -12 0 -19 -7 -19 -20 0 -11 -4 -20 -9 -20 -9 0 -37 -26 -214 -196 -48
-46 -92 -84 -97 -84 -5 0 -11 -8 -14 -17 -3 -10 -19 -27 -36 -38 -16 -11 -30
-26 -30 -32 0 -7 -4 -13 -8 -13 -9 0 -65 -52 -114 -106 -33 -36 -47 -50 -72
-72 -26 -24 -56 -54 -94 -96 -19 -20 -37 -36 -42 -36 -4 0 -11 -11 -14 -25 -4
-14 -17 -30 -31 -35 -13 -5 -29 -19 -35 -30 -18 -34 -43 -60 -57 -60 -7 0 -13
-9 -13 -20 0 -11 -5 -20 -11 -20 -14 0 -48 -41 -49 -57 0 -7 -5 -13 -11 -13
-13 0 -39 -25 -39 -38 0 -6 -7 -12 -15 -16 -8 -3 -15 -12 -15 -21 0 -8 -7 -15
-15 -15 -9 0 -28 -20 -43 -45 -15 -24 -35 -45 -44 -45 -11 0 -20 -12 -26 -32
-6 -23 -15 -34 -30 -36 -13 -2 -28 -18 -39 -42 -10 -22 -32 -47 -50 -57 -21
-11 -33 -25 -33 -38 0 -11 -13 -29 -29 -40 -17 -10 -34 -30 -40 -42 -6 -13
-15 -23 -21 -23 -5 0 -10 -6 -10 -14 0 -8 -8 -21 -19 -28 -10 -7 -32 -35 -49
-62 -17 -27 -40 -55 -52 -63 -11 -8 -20 -20 -20 -26 0 -7 -16 -26 -35 -42 -19
-17 -35 -38 -35 -47 0 -10 -9 -22 -20 -28 -11 -6 -20 -17 -20 -25 0 -8 -7 -15
-15 -15 -8 0 -15 -4 -15 -9 0 -18 -54 -91 -67 -91 -7 0 -13 -5 -13 -12 0 -6
-11 -26 -25 -44 -14 -18 -25 -35 -25 -39 0 -3 -11 -18 -25 -33 -14 -15 -25
-30 -25 -34 0 -4 -14 -22 -31 -40 -17 -18 -35 -45 -41 -60 -5 -16 -14 -28 -19
-28 -5 0 -9 -7 -9 -16 0 -8 -5 -12 -10 -9 -6 3 -14 -4 -19 -17 -5 -13 -19 -33
-30 -45 -12 -12 -21 -27 -21 -34 0 -6 -11 -22 -24 -34 -13 -12 -32 -37 -42
-56 -9 -19 -25 -41 -35 -50 -11 -9 -19 -21 -19 -26 0 -5 -11 -23 -25 -39 -14
-16 -25 -35 -25 -42 0 -6 -11 -22 -25 -34 -14 -12 -34 -41 -46 -65 -11 -24
-25 -43 -30 -43 -5 0 -9 -7 -9 -14 0 -8 -11 -27 -24 -41 -13 -14 -26 -38 -29
-54 -4 -18 -15 -32 -27 -36 -12 -4 -20 -15 -20 -30 0 -12 -6 -25 -14 -28 -8
-3 -17 -19 -21 -36 -4 -18 -13 -31 -21 -31 -9 0 -26 -24 -39 -54 -13 -29 -31
-56 -39 -59 -9 -4 -16 -15 -16 -26 0 -10 -6 -21 -14 -24 -7 -3 -16 -22 -20
-41 -4 -22 -13 -36 -21 -36 -8 0 -15 -7 -15 -15 0 -8 -4 -15 -8 -15 -5 0 -14
-16 -22 -35 -8 -19 -17 -35 -22 -35 -4 0 -8 -11 -8 -25 0 -15 -6 -25 -14 -25
-12 0 -56 -85 -56 -109 0 -5 -7 -14 -15 -18 -17 -10 -55 -80 -55 -101 0 -14
-13 -32 -43 -60 -10 -9 -20 -34 -24 -54 -3 -23 -11 -38 -19 -38 -8 0 -14 -8
-14 -18 0 -11 -9 -29 -20 -42 -11 -13 -20 -31 -20 -42 0 -10 -3 -18 -8 -18 -7
0 -21 -29 -36 -72 -3 -10 -12 -18 -19 -18 -8 0 -17 -13 -20 -29 -9 -44 -40
-111 -52 -111 -6 0 -19 -23 -29 -52 -10 -28 -24 -58 -32 -65 -8 -8 -14 -25
-14 -39 0 -13 -4 -24 -10 -24 -5 0 -10 -7 -10 -15 0 -8 -4 -15 -10 -15 -5 0
-10 -11 -10 -25 0 -14 -4 -25 -10 -25 -5 0 -14 -18 -20 -40 -6 -22 -15 -40
-19 -40 -5 0 -11 -8 -15 -17 -3 -10 -14 -43 -24 -73 -12 -33 -26 -56 -36 -58
-11 -2 -16 -14 -16 -36 0 -18 -9 -43 -19 -55 -11 -13 -23 -36 -26 -52 -4 -16
-11 -31 -16 -34 -5 -4 -9 -15 -9 -26 0 -10 -4 -19 -8 -19 -5 0 -14 -19 -21
-42 -7 -24 -19 -50 -25 -58 -7 -8 -18 -34 -25 -57 -6 -24 -16 -43 -21 -43 -6
0 -10 -10 -10 -23 0 -13 -4 -27 -8 -32 -5 -6 -14 -29 -21 -52 -6 -24 -15 -43
-20 -43 -4 0 -14 -22 -21 -50 -7 -27 -16 -50 -20 -50 -3 0 -12 -22 -19 -50 -7
-27 -17 -50 -22 -50 -5 0 -9 -11 -9 -24 0 -14 -4 -27 -9 -30 -5 -4 -12 -24
-16 -47 -4 -22 -13 -43 -21 -46 -8 -3 -14 -15 -14 -27 0 -11 -6 -32 -13 -46
-7 -14 -19 -47 -27 -75 -7 -27 -19 -59 -27 -70 -7 -11 -13 -32 -13 -47 0 -16
-9 -37 -20 -48 -11 -11 -20 -33 -20 -49 0 -16 -6 -36 -14 -43 -7 -8 -16 -39
-20 -70 -4 -34 -13 -58 -21 -62 -8 -3 -18 -23 -21 -46 -4 -22 -10 -40 -14 -40
-4 0 -10 -27 -14 -60 -5 -40 -11 -60 -20 -60 -9 0 -16 -18 -21 -46 -4 -26 -10
-54 -15 -63 -13 -26 -29 -83 -36 -128 -4 -24 -10 -43 -15 -43 -5 0 -9 -13 -9
-30 0 -16 -4 -30 -9 -30 -5 0 -18 -48 -29 -106 -11 -59 -25 -110 -30 -113 -12
-7 -40 -112 -52 -196 -11 -75 -20 -105 -31 -105 -5 0 -9 -10 -9 -22 0 -13 -9
-50 -19 -83 -10 -33 -22 -93 -26 -132 -5 -53 -11 -73 -21 -73 -9 0 -14 -11
-14 -33 0 -18 -6 -57 -14 -87 -8 -30 -18 -88 -21 -127 -4 -40 -12 -73 -16 -73
-5 0 -9 -20 -9 -44 0 -24 -5 -46 -10 -48 -11 -3 -25 -85 -57 -313 -9 -66 -20
-122 -24 -125 -9 -6 -37 -212 -49 -355 -8 -101 -15 -135 -30 -135 -4 0 -10
-39 -13 -87 -10 -178 -37 -500 -47 -563 -5 -36 -10 -115 -10 -177 0 -67 -4
-113 -10 -115 -19 -6 -25 -238 -24 -923 0 -795 3 -875 24 -876 10 0 11 -2 3
-6 -15 -6 -18 -63 -3 -63 14 0 12 -27 -2 -33 -9 -4 -10 -8 -2 -14 6 -4 14 -51
18 -103 3 -52 9 -115 11 -140 9 -70 13 -125 20 -260 4 -69 11 -141 16 -160 5
-19 9 -58 9 -87 0 -28 4 -53 10 -55 5 -1 11 -23 14 -48 2 -25 9 -90 15 -145 6
-55 12 -113 12 -130 1 -16 5 -43 10 -60 4 -16 10 -57 13 -89 3 -33 11 -63 16
-66 6 -4 15 -43 20 -89 5 -45 11 -85 14 -89 2 -4 7 -41 11 -82 8 -94 24 -160
39 -160 6 0 4 -5 -4 -11 -11 -8 -12 -12 -2 -16 6 -2 12 -15 12 -28 0 -12 7
-42 15 -65 8 -23 15 -64 15 -90 0 -26 7 -67 15 -90 8 -23 15 -53 15 -66 0 -13
6 -24 13 -24 8 0 7 -4 -3 -10 -8 -5 -10 -10 -4 -10 12 0 33 -83 38 -150 1 -25
10 -59 19 -77 10 -18 17 -43 17 -58 0 -14 3 -25 8 -25 11 0 32 -74 32 -114 0
-18 9 -62 20 -96 11 -34 20 -68 20 -75 0 -8 5 -15 11 -17 6 -2 13 -21 16 -43
2 -22 9 -57 14 -77 5 -21 14 -57 19 -80 6 -24 17 -47 24 -53 7 -5 16 -34 19
-63 6 -55 19 -103 43 -160 8 -18 14 -41 14 -52 0 -10 5 -20 11 -22 9 -3 24
-53 34 -117 6 -41 38 -125 52 -139 7 -7 13 -25 13 -40 0 -15 7 -40 15 -56 8
-15 15 -37 15 -47 0 -11 9 -28 20 -39 13 -13 20 -35 22 -65 0 -25 5 -45 10
-45 5 0 7 -4 4 -9 -3 -5 0 -11 7 -14 7 -2 14 -20 15 -38 2 -18 9 -43 16 -54 7
-11 17 -35 20 -53 4 -17 12 -32 17 -32 5 0 12 -18 15 -40 4 -22 13 -45 20 -51
8 -6 14 -21 14 -33 0 -12 6 -30 14 -41 7 -11 16 -33 20 -48 4 -16 20 -57 36
-91 17 -35 30 -66 30 -70 0 -4 9 -28 21 -54 40 -93 52 -122 77 -182 17 -41 62
-141 93 -206 16 -33 29 -70 29 -81 0 -11 6 -23 13 -26 7 -3 26 -38 42 -78 16
-41 35 -78 42 -82 7 -4 13 -16 13 -27 0 -10 7 -25 15 -34 8 -8 15 -21 15 -30
0 -16 21 -67 30 -76 13 -11 70 -136 70 -153 0 -9 8 -17 17 -17 9 0 14 -3 10
-6 -3 -3 3 -15 13 -27 11 -11 23 -36 26 -55 4 -18 13 -36 20 -39 8 -3 14 -13
14 -22 0 -10 8 -26 19 -37 10 -12 22 -35 26 -53 4 -18 13 -35 21 -38 8 -3 14
-13 14 -23 0 -9 9 -29 20 -43 11 -14 20 -35 20 -47 0 -23 21 -50 40 -50 6 0 8
-5 5 -10 -3 -6 1 -17 10 -26 9 -9 19 -29 22 -45 3 -15 18 -43 34 -60 16 -18
29 -40 29 -48 0 -9 7 -25 15 -35 8 -11 15 -28 15 -38 0 -10 8 -22 18 -25 23
-9 41 -34 42 -56 0 -10 9 -27 20 -39 11 -12 20 -30 20 -40 0 -10 7 -18 15 -18
8 0 19 -17 25 -41 6 -22 17 -42 25 -45 8 -3 11 -12 8 -20 -3 -10 2 -17 13 -20
11 -3 29 -28 43 -60 13 -30 32 -59 42 -65 11 -5 19 -16 19 -24 0 -21 33 -75
51 -80 8 -3 21 -22 28 -43 8 -20 22 -49 32 -64 11 -14 19 -31 19 -37 0 -6 5
-11 10 -11 6 0 10 -6 10 -12 0 -7 12 -24 25 -37 14 -13 25 -29 25 -37 0 -8 6
-14 14 -14 8 0 17 -14 21 -30 4 -17 15 -36 25 -42 10 -6 16 -17 13 -24 -2 -7
5 -15 16 -19 12 -3 21 -15 21 -26 0 -10 5 -19 10 -19 6 0 10 -6 10 -14 0 -8
16 -31 35 -52 19 -20 33 -39 31 -42 -3 -2 8 -18 24 -36 17 -17 30 -35 30 -41
0 -5 14 -24 30 -42 17 -18 30 -37 30 -42 0 -6 11 -18 25 -27 14 -9 25 -24 25
-33 1 -21 24 -51 39 -51 7 0 10 -4 7 -9 -3 -5 1 -11 9 -15 8 -3 15 -15 15 -26
0 -11 6 -23 14 -26 7 -3 22 -20 32 -39 10 -18 26 -36 35 -38 10 -3 21 -17 25
-32 4 -15 20 -41 35 -59 57 -61 65 -72 72 -89 3 -9 11 -17 17 -17 5 0 10 -6
10 -14 0 -8 9 -17 19 -21 10 -3 24 -19 31 -35 6 -16 18 -31 26 -34 8 -3 14
-12 14 -20 0 -7 7 -17 16 -20 8 -3 13 -10 9 -16 -6 -10 29 -50 43 -50 5 0 13
-9 18 -20 9 -19 54 -73 147 -172 20 -22 37 -45 37 -52 0 -6 14 -22 31 -35 17
-14 35 -36 40 -49 5 -13 18 -26 28 -29 10 -2 28 -22 40 -43 12 -22 35 -49 52
-60 16 -12 36 -35 44 -51 9 -16 22 -29 30 -29 8 0 15 -6 15 -13 0 -7 9 -19 20
-27 11 -8 20 -20 20 -27 0 -6 12 -21 28 -31 15 -11 41 -38 57 -61 17 -22 35
-41 40 -41 6 0 16 -14 23 -30 8 -17 24 -33 37 -36 13 -3 29 -18 35 -35 7 -16
17 -29 22 -29 10 0 68 -57 68 -68 0 -4 16 -18 35 -31 19 -13 35 -30 35 -38 0
-7 16 -23 35 -34 19 -12 35 -24 35 -28 0 -10 44 -61 52 -61 4 0 45 -37 91 -82
46 -46 94 -93 108 -105 26 -24 33 -31 84 -80 18 -18 35 -33 39 -33 9 0 56 -51
56 -60 0 -4 14 -13 30 -20 16 -7 30 -19 30 -26 0 -8 9 -14 20 -14 13 0 20 -7
20 -20 0 -11 7 -20 15 -20 8 0 15 -4 15 -10 0 -5 7 -10 15 -10 8 0 20 -10 26
-22 15 -28 48 -58 64 -58 7 0 16 -11 19 -25 4 -16 13 -25 26 -25 11 0 29 -14
42 -30 12 -17 30 -30 40 -30 10 0 18 -7 18 -15 0 -8 4 -15 9 -15 13 0 96 -79
94 -89 -1 -5 9 -12 23 -15 14 -4 39 -22 56 -41 16 -19 39 -35 49 -35 10 0 19
-4 19 -9 0 -13 45 -61 57 -61 5 0 18 -9 28 -20 10 -11 26 -20 37 -20 10 0 18
-5 18 -12 0 -17 61 -68 82 -68 10 0 18 -4 18 -10 0 -13 37 -50 50 -50 6 0 10
-4 10 -10 0 -5 8 -10 19 -10 10 0 21 -9 24 -20 3 -11 12 -20 21 -20 9 0 25 -9
36 -20 11 -11 29 -20 40 -20 13 0 20 -7 20 -19 0 -20 39 -51 65 -51 8 0 15 -9
15 -20 0 -13 7 -20 20 -20 11 0 20 -5 20 -11 0 -5 14 -15 30 -21 17 -5 35 -19
41 -29 5 -10 16 -19 24 -19 8 0 15 -4 15 -9 0 -5 14 -14 30 -21 17 -7 35 -21
41 -31 5 -11 17 -19 25 -19 8 0 13 -4 10 -9 -3 -4 13 -14 34 -21 22 -7 40 -18
40 -24 0 -13 72 -56 93 -56 8 0 20 -13 27 -29 9 -22 21 -31 46 -36 19 -3 38
-13 41 -21 3 -7 10 -14 17 -14 6 0 18 -9 26 -20 8 -10 27 -22 43 -26 15 -3 31
-12 34 -20 3 -8 11 -14 19 -14 8 0 14 -6 14 -12 0 -7 30 -26 65 -43 36 -16 65
-34 65 -40 0 -6 21 -19 46 -30 26 -11 51 -29 57 -42 5 -13 18 -23 28 -23 23 0
109 -41 109 -52 0 -4 7 -8 15 -8 8 0 15 -7 15 -15 0 -9 9 -15 25 -15 14 0 30
-9 37 -20 8 -12 24 -20 40 -20 18 0 28 -5 28 -14 0 -8 16 -20 35 -27 19 -7 35
-17 35 -21 0 -4 7 -8 15 -8 8 0 20 -9 27 -20 7 -11 20 -20 28 -20 8 0 24 -7
34 -15 11 -8 28 -15 38 -15 10 0 21 -7 24 -15 4 -8 12 -15 20 -15 8 0 14 -4
14 -10 0 -5 8 -10 18 -11 9 0 31 -9 47 -19 17 -10 55 -31 85 -47 30 -15 56
-31 58 -35 2 -4 51 -31 110 -60 59 -29 109 -56 110 -60 2 -5 12 -8 23 -8 10 0
19 -4 19 -8 0 -4 23 -16 50 -27 27 -11 50 -23 50 -27 0 -4 9 -8 20 -8 11 0 20
-3 20 -8 0 -4 15 -13 33 -20 17 -7 39 -18 47 -23 8 -5 32 -17 53 -26 20 -9 37
-20 37 -25 0 -4 12 -8 26 -8 14 0 32 -7 41 -15 8 -9 28 -19 44 -22 16 -3 29
-9 29 -13 0 -4 19 -15 43 -25 23 -9 54 -23 69 -31 14 -8 34 -14 43 -14 9 0 23
-6 30 -13 8 -6 20 -17 27 -22 19 -16 96 -45 118 -45 10 0 27 -8 37 -19 10 -10
29 -21 43 -24 60 -12 160 -53 160 -64 0 -7 9 -13 19 -13 11 0 22 -4 26 -9 3
-6 26 -13 50 -17 25 -3 45 -10 45 -15 0 -5 7 -9 15 -9 8 0 15 -4 15 -9 0 -5
16 -12 35 -15 19 -4 35 -11 35 -16 0 -4 23 -11 50 -15 28 -4 50 -11 50 -16 0
-5 10 -9 21 -9 12 0 27 -6 33 -14 6 -7 31 -19 56 -25 25 -7 63 -17 85 -23 22
-6 45 -17 51 -24 6 -8 57 -26 113 -41 65 -17 101 -31 101 -40 0 -7 7 -13 16
-13 15 0 58 -12 172 -47 28 -9 52 -19 52 -23 0 -4 45 -17 100 -29 55 -12 102
-26 105 -32 4 -5 15 -9 26 -9 10 0 19 -4 19 -10 0 -5 9 -10 20 -10 11 0 20 -4
20 -10 0 -5 18 -10 40 -10 21 0 59 -6 82 -14 24 -8 60 -17 81 -20 23 -4 37
-12 37 -21 0 -8 9 -15 20 -15 33 0 184 -32 195 -41 5 -5 22 -9 37 -9 15 0 28
-4 28 -9 0 -6 21 -13 48 -16 26 -3 54 -10 62 -14 9 -5 39 -12 68 -16 29 -4 54
-11 58 -16 3 -5 18 -9 35 -9 16 0 29 -4 29 -9 0 -5 45 -14 100 -21 55 -7 100
-16 100 -20 0 -3 33 -12 74 -19 41 -6 76 -17 79 -24 2 -6 33 -13 78 -15 41 -2
83 -7 94 -12 33 -14 112 -30 149 -30 20 0 36 -4 36 -9 0 -4 42 -14 93 -20 50
-7 115 -19 144 -27 28 -8 70 -14 92 -14 23 0 49 -4 59 -9 22 -12 597 -88 721
-96 52 -3 101 -10 110 -14 9 -5 75 -12 146 -16 72 -3 157 -11 190 -16 52 -8
193 -18 512 -33 46 -3 92 -7 103 -11 11 -3 20 -2 20 3 0 6 18 6 46 1 42 -8
997 -4 1089 5 35 3 150 9 390 21 39 2 117 8 175 14 58 6 144 13 192 16 47 3
93 7 101 10 7 3 34 8 58 10 42 4 209 22 274 30 120 15 224 27 248 27 15 1 27
5 27 10 0 5 4 7 8 4 4 -3 26 -1 48 4 21 5 62 11 89 13 28 3 70 10 95 16 46 10
151 28 205 35 17 2 55 9 85 16 30 7 66 14 80 15 14 2 48 9 75 15 96 21 200 39
242 42 30 2 43 8 43 18 0 13 1 13 10 0 8 -12 12 -12 18 -3 4 7 32 17 61 23 29
5 57 12 62 15 5 4 28 8 51 11 67 7 138 25 138 35 0 5 22 9 48 9 26 0 52 4 58
10 11 11 74 26 179 43 39 6 76 17 83 24 7 7 25 15 40 18 15 3 41 10 57 15 17
5 59 14 94 19 36 6 67 15 71 21 8 13 137 50 224 64 11 1 22 8 24 14 2 7 11 12
20 12 10 0 42 9 72 20 30 11 67 20 82 20 15 0 30 5 33 10 3 6 17 10 31 10 13
0 24 4 24 8 0 15 70 42 108 42 20 0 50 7 66 15 15 8 37 15 47 15 11 0 19 4 19
9 0 5 12 13 28 19 50 19 131 42 146 42 8 0 21 7 29 15 17 17 132 57 204 71 6
1 22 11 34 23 13 12 30 21 38 22 33 1 66 10 94 24 17 8 36 15 44 15 7 0 13 4
13 8 0 5 19 14 43 21 23 7 61 21 85 32 23 10 47 19 52 19 6 0 19 9 30 20 11
11 28 20 39 20 26 0 125 42 134 57 4 7 20 13 35 13 15 0 36 7 46 15 11 8 27
15 37 15 9 0 22 7 29 15 7 8 23 15 36 15 13 0 24 4 24 9 0 5 15 14 33 21 49
18 121 53 127 60 3 4 23 13 45 20 22 7 46 19 53 27 8 7 17 11 22 8 4 -3 10 2
14 10 3 8 11 15 18 15 16 0 142 62 146 73 2 4 8 7 13 7 10 0 122 52 129 60 3
3 25 14 50 25 25 10 57 27 72 37 14 10 33 18 42 18 9 0 16 7 16 15 0 9 6 12
15 9 8 -4 15 -1 15 6 0 7 6 10 13 7 7 -3 19 4 25 14 7 10 19 19 28 19 9 0 28
8 42 18 15 9 54 31 87 47 32 17 68 38 78 47 11 9 33 20 49 23 16 4 32 13 35
21 3 8 12 14 19 14 8 0 23 8 34 18 10 10 42 29 69 42 28 14 51 28 51 32 0 3
13 9 29 13 16 3 32 12 34 20 3 7 19 16 36 20 17 4 31 13 31 21 0 8 6 14 13 14
7 0 28 11 47 24 19 13 46 27 59 31 13 4 36 21 49 37 16 19 31 28 44 25 11 -3
18 0 18 9 0 8 7 14 15 14 8 0 15 4 15 9 0 5 14 14 30 21 17 7 30 16 30 20 0 4
14 10 31 14 19 3 44 21 62 41 16 19 37 35 47 35 10 0 23 7 30 15 7 8 20 15 29
15 9 0 21 10 26 22 6 12 23 26 39 31 16 6 42 23 57 38 16 16 37 29 49 29 11 0
20 5 20 10 0 6 6 10 14 10 8 0 18 10 21 21 6 17 9 19 16 8 7 -11 9 -10 9 3 0
11 15 24 37 33 21 9 51 30 68 47 16 17 42 35 58 40 15 6 27 14 27 19 0 5 7 9
15 9 8 0 15 7 15 15 0 8 8 15 18 15 20 0 72 42 72 59 0 6 14 14 31 18 17 3 33
12 36 19 3 8 11 14 18 14 8 0 16 8 19 18 6 16 58 52 76 52 5 0 25 15 44 32 71
67 103 93 129 107 15 8 27 18 27 23 0 5 11 13 25 18 14 5 25 14 25 19 0 5 9
13 20 16 11 3 20 13 20 21 0 8 8 14 17 14 9 0 28 11 42 24 14 13 44 40 65 60
22 20 45 36 53 36 7 0 13 5 13 10 0 6 7 10 15 10 8 0 15 9 15 20 0 11 7 20 15
20 8 0 15 5 15 10 0 6 7 10 15 10 9 0 21 11 27 25 6 13 20 28 32 31 12 4 34
22 49 39 15 18 39 36 52 39 14 4 25 10 25 15 0 15 125 131 141 131 4 0 10 8
14 19 3 10 21 27 40 37 19 10 35 22 35 25 0 4 17 22 37 41 20 18 54 50 74 71
20 20 40 37 43 37 4 0 29 23 55 50 26 28 53 50 60 50 6 0 11 6 11 13 0 14 43
57 58 57 6 0 13 8 17 18 3 9 26 33 50 52 24 19 44 40 44 47 1 6 17 21 36 33
19 12 35 27 35 34 0 7 12 22 26 32 15 10 34 27 43 37 9 10 23 26 31 36 8 10
22 20 31 23 9 4 22 20 30 36 7 16 22 33 33 38 12 5 28 24 36 41 8 18 22 33 31
33 9 0 25 12 35 27 10 15 36 44 57 64 20 21 37 42 37 47 0 5 7 12 15 16 8 3
15 12 15 21 0 8 7 15 15 15 8 0 22 12 32 28 10 15 34 44 55 64 21 21 38 45 38
53 0 8 7 15 16 15 18 0 53 38 54 58 0 7 11 18 25 24 14 6 25 17 25 25 0 7 5
13 10 13 6 0 10 7 10 15 0 8 5 15 10 15 6 0 10 7 10 15 0 8 4 15 8 15 14 0 52
36 52 49 0 13 36 51 49 51 5 0 19 21 31 46 13 25 30 48 38 52 23 8 52 40 52
56 0 8 16 27 35 42 19 14 35 34 35 43 0 17 33 51 49 51 5 0 12 14 16 31 4 18
15 33 26 36 10 3 21 14 24 24 4 10 11 19 16 19 5 0 9 9 9 19 0 10 7 21 15 25
8 3 20 17 25 31 5 14 16 25 25 25 8 0 15 7 15 15 0 8 5 15 10 15 6 0 10 6 10
13 0 6 14 26 30 44 17 18 30 37 30 42 0 6 5 11 10 11 6 0 10 6 10 14 0 8 7 16
15 20 8 3 15 16 15 28 0 19 2 20 10 8 8 -12 10 -12 10 5 0 11 12 31 25 44 14
13 25 32 25 42 0 10 6 19 14 19 7 0 21 15 29 33 9 17 28 44 42 59 14 15 25 33
25 40 0 7 9 19 20 26 11 7 20 19 20 27 0 8 4 15 9 15 5 0 12 14 16 30 4 16 13
30 20 30 13 0 25 17 57 80 7 14 24 36 39 50 14 14 32 40 40 58 8 17 17 32 21
32 5 0 8 7 8 15 0 9 7 18 15 21 8 4 15 15 15 25 0 10 5 19 10 19 6 0 10 9 10
20 0 12 10 25 25 32 14 6 25 19 25 28 0 10 7 23 15 30 8 7 15 18 15 26 0 7 11
24 25 38 14 14 25 32 25 39 0 8 6 17 14 20 7 3 16 22 20 41 4 22 13 36 21 36
8 0 15 9 15 19 0 10 6 21 14 24 7 3 16 19 19 36 4 17 12 31 19 31 7 0 28 33
47 72 19 40 42 80 52 89 11 9 19 21 19 28 0 21 45 100 58 101 6 0 12 7 12 15
0 8 5 15 10 15 6 0 10 13 10 28 0 16 9 38 20 50 11 12 20 30 20 42 0 11 6 20
14 20 15 0 26 21 26 50 0 11 9 24 20 30 11 6 20 17 20 25 0 8 4 15 10 15 5 0
12 16 16 36 4 19 13 38 20 41 8 3 14 13 14 22 0 9 11 29 25 45 14 16 25 38 25
48 0 11 7 26 15 34 8 9 15 25 15 36 0 11 8 22 20 25 13 3 20 14 20 28 0 24 39
107 53 113 4 2 7 14 7 27 0 13 3 25 8 27 4 2 23 37 42 78 19 41 41 81 48 88 6
7 12 24 12 38 0 13 4 24 8 24 5 0 15 18 22 40 7 22 19 40 27 40 7 0 13 8 13
18 0 20 31 101 59 157 12 21 21 45 21 52 0 7 4 13 8 13 4 0 14 20 21 45 7 25
17 45 22 45 5 0 9 14 9 30 0 17 4 30 10 30 5 0 15 19 22 43 6 23 18 46 25 50
7 4 13 16 13 25 0 9 6 28 13 42 7 14 24 57 37 95 14 39 30 76 37 83 7 7 13 20
13 28 0 9 11 40 25 70 14 30 25 60 25 67 0 7 9 30 20 52 11 22 20 47 20 57 0
10 5 18 10 18 6 0 10 16 10 35 0 19 5 35 10 35 6 0 10 7 10 15 0 8 5 15 10 15
6 0 10 11 10 25 0 14 4 33 9 43 13 23 39 104 59 177 8 33 21 64 29 68 7 4 13
24 13 42 0 19 4 35 8 35 5 0 16 36 26 80 10 44 22 80 27 80 5 0 9 11 9 25 0
14 4 25 9 25 5 0 12 21 16 47 4 27 10 53 15 58 4 6 11 32 15 59 3 27 13 55 20
63 8 7 17 35 21 61 4 26 10 49 15 52 4 3 13 39 20 80 6 43 17 78 25 83 8 4 14
19 14 33 0 13 7 41 15 61 8 19 15 49 15 65 0 40 20 118 31 118 5 0 9 10 9 22
0 23 16 81 31 110 5 10 9 45 9 78 0 33 4 60 10 60 6 0 10 18 10 40 0 22 5 40
10 40 6 0 10 10 10 23 0 13 5 28 12 35 6 6 13 47 16 92 2 44 8 80 12 80 4 0
10 28 14 63 3 34 11 64 16 65 6 2 10 14 10 27 0 13 4 26 9 30 5 3 13 50 16
105 4 55 11 100 16 100 5 0 9 29 9 65 0 42 4 67 13 72 14 8 39 170 57 368 13
133 20 175 30 175 9 0 13 40 34 330 9 113 20 234 26 270 5 36 10 95 10 132 0
36 5 68 10 70 21 7 37 610 33 1288 -3 625 -11 841 -32 848 -15 5 -14 52 2 52
9 0 9 2 0 8 -6 4 -14 48 -17 102 -4 52 -8 109 -10 125 -9 76 -16 157 -21 240
-4 50 -9 108 -11 130 -3 22 -8 74 -11 115 -3 41 -10 78 -15 81 -5 3 -10 22
-11 42 -1 20 -4 37 -7 37 -3 0 -5 10 -6 23 0 12 -4 65 -9 117 -5 52 -9 105 -9
118 -1 12 -3 22 -6 22 -3 0 -6 12 -6 26 -4 62 -16 114 -27 114 -7 0 -6 4 3 10
11 8 12 12 3 18 -10 6 -48 215 -58 317 -4 45 -17 89 -27 96 -6 4 -11 25 -11
48 -1 22 -4 41 -7 41 -3 0 -6 8 -7 18 -2 16 -19 121 -27 167 -2 11 -4 28 -5
37 0 9 -7 23 -15 30 -13 13 -20 44 -31 136 -8 63 -46 196 -59 205 -8 5 -7 10
4 17 9 6 11 13 5 18 -19 14 -35 52 -35 82 0 16 -7 49 -15 72 -8 24 -16 60 -18
82 -3 21 -9 41 -15 45 -6 4 -18 38 -26 76 -8 39 -17 77 -21 86 -3 9 -7 27 -9
40 -4 37 -17 79 -25 79 -4 0 -15 35 -25 78 -10 42 -21 84 -26 92 -4 9 -11 30
-15 48 -3 18 -12 32 -18 32 -7 0 -6 4 3 10 13 9 13 12 -2 21 -10 5 -18 19 -18
30 0 28 -52 181 -67 197 -7 7 -13 26 -13 42 0 16 -5 32 -11 35 -6 4 -8 13 -5
21 3 8 1 14 -5 14 -6 0 -9 7 -5 15 3 8 0 15 -6 15 -6 0 -8 3 -5 7 4 3 2 12 -4
20 -6 7 -9 13 -6 13 6 0 -34 116 -51 147 -7 12 -12 30 -12 40 0 10 -7 27 -15
37 -8 11 -15 27 -15 35 0 9 -9 34 -19 56 -11 22 -26 58 -34 80 -8 22 -31 78
-50 125 -39 92 -52 131 -49 143 1 4 -3 7 -9 7 -5 0 -8 4 -5 9 4 5 1 11 -4 13
-6 2 -12 13 -13 26 0 12 -5 22 -10 22 -4 0 -5 5 -2 10 3 6 1 10 -6 10 -7 0 -9
3 -6 6 3 4 1 16 -5 28 -7 11 -11 24 -10 29 1 4 -3 7 -9 7 -5 0 -7 5 -4 10 3 6
2 10 -2 10 -5 0 -10 12 -11 28 -1 15 -8 32 -15 37 -12 10 -19 29 -20 52 0 7
-7 15 -14 17 -8 3 -11 10 -8 16 3 5 1 10 -5 10 -6 0 -9 4 -5 9 3 5 -2 16 -11
25 -8 9 -12 20 -9 26 3 5 1 10 -5 10 -6 0 -8 5 -5 10 3 6 1 10 -5 10 -6 0 -9
4 -5 9 3 5 -1 16 -9 24 -8 8 -18 28 -22 43 -4 16 -10 31 -14 34 -8 7 -56 108
-65 140 -4 13 -14 30 -21 38 -8 7 -14 22 -14 31 0 10 -6 24 -14 30 -7 6 -16
24 -19 40 -3 16 -13 36 -22 44 -8 9 -15 22 -15 29 0 8 -5 19 -11 25 -7 7 -20
38 -31 69 -11 32 -28 66 -39 75 -10 9 -22 31 -25 48 -4 17 -11 34 -15 37 -5 3
-9 14 -9 25 0 10 -7 19 -15 19 -18 0 -20 16 -2 23 9 4 9 6 -1 6 -22 1 -40 26
-54 71 -7 23 -19 45 -25 47 -7 3 -13 13 -13 23 0 9 -9 25 -20 35 -11 10 -20
28 -20 40 0 12 -8 30 -17 41 -24 27 -37 49 -68 112 -14 28 -30 52 -34 52 -5 0
-12 14 -16 30 -4 17 -10 30 -15 30 -4 0 -11 15 -14 34 -4 21 -14 37 -24 40
-10 4 -24 23 -31 44 -8 20 -22 49 -32 64 -11 14 -19 30 -19 35 0 4 -9 14 -20
21 -11 7 -20 19 -20 27 0 19 -40 95 -50 95 -5 0 -19 20 -31 45 -12 25 -26 45
-31 45 -4 0 -8 7 -8 14 0 8 -11 27 -24 41 -14 15 -28 40 -31 57 -4 17 -15 32
-24 35 -9 2 -22 16 -29 31 -16 40 -54 102 -74 123 -10 11 -18 25 -18 33 0 8
-7 16 -15 20 -8 3 -15 12 -15 21 0 8 -7 15 -15 15 -8 0 -15 9 -15 20 0 11 -8
28 -18 38 -10 10 -24 32 -31 50 -7 18 -18 32 -24 32 -14 0 -36 32 -37 52 0 10
-9 22 -20 28 -11 6 -20 17 -20 26 0 8 -16 30 -35 48 -19 19 -35 40 -35 46 0 7
-13 29 -30 49 -16 20 -39 47 -50 61 -11 14 -34 48 -51 75 -18 28 -42 59 -54
70 -12 11 -31 39 -41 63 -10 23 -21 42 -25 42 -13 0 -69 61 -69 75 0 7 -7 15
-15 19 -8 3 -15 12 -15 20 0 9 -9 20 -20 26 -11 6 -20 17 -20 26 0 8 -7 17
-15 20 -8 4 -15 12 -15 20 0 8 -4 14 -9 14 -6 0 -18 14 -28 30 -9 17 -23 30
-30 30 -7 0 -13 6 -13 13 0 7 -13 27 -30 45 -16 18 -30 35 -30 37 0 1 -13 17
-30 35 -16 18 -30 37 -30 44 0 6 -14 22 -32 36 -17 13 -37 39 -45 57 -7 18
-20 33 -28 33 -8 0 -27 18 -42 41 -15 23 -37 45 -49 49 -13 5 -25 21 -29 39
-4 17 -10 31 -15 31 -5 0 -12 9 -15 20 -3 11 -11 20 -17 20 -15 0 -58 48 -58
66 0 7 -9 14 -20 14 -11 0 -20 5 -20 11 0 7 -11 22 -25 35 -14 13 -25 25 -25
28 0 2 -29 34 -65 70 -36 36 -65 70 -65 76 0 15 -38 50 -55 50 -8 0 -15 7 -15
15 0 8 -4 15 -9 15 -5 0 -11 9 -14 20 -3 11 -13 20 -24 20 -12 0 -24 14 -36
40 -11 26 -25 42 -41 46 -15 3 -31 18 -38 35 -7 16 -16 29 -20 29 -4 0 -30 23
-58 50 -28 28 -55 50 -60 50 -6 0 -10 5 -10 10 0 6 -22 32 -50 57 -27 25 -50
52 -50 59 0 8 -9 14 -20 14 -11 0 -20 5 -20 10 0 13 -37 50 -50 50 -6 0 -16
11 -22 25 -6 14 -16 25 -21 25 -5 0 -26 17 -46 38 -20 20 -81 78 -135 127 -54
50 -104 96 -111 103 -8 6 -18 12 -24 12 -6 0 -11 7 -11 15 0 8 -6 15 -14 15
-8 0 -23 13 -32 29 -10 17 -28 32 -40 35 -13 3 -26 15 -29 26 -3 11 -15 20
-25 20 -9 0 -20 9 -23 20 -3 11 -12 20 -20 20 -9 0 -19 9 -22 20 -3 11 -13 20
-21 20 -16 0 -54 35 -54 50 0 6 -7 10 -15 10 -19 0 -55 31 -55 47 0 7 -7 13
-15 13 -8 0 -15 3 -15 8 0 4 -14 13 -31 21 -18 8 -34 22 -36 32 -3 11 -12 19
-19 19 -8 0 -30 16 -50 35 -19 19 -39 35 -44 35 -5 0 -14 9 -20 19 -5 11 -20
23 -32 27 -13 4 -35 20 -49 35 -15 16 -34 29 -42 29 -8 0 -17 7 -21 15 -3 8
-12 15 -20 15 -7 0 -16 9 -19 19 -2 10 -22 27 -42 37 -21 10 -40 26 -43 36 -2
10 -11 18 -19 18 -7 0 -23 9 -35 20 -12 11 -30 20 -40 20 -10 0 -18 6 -18 13
0 20 -33 47 -58 47 -12 0 -22 5 -22 11 0 15 -51 59 -69 59 -7 0 -31 18 -53 40
-22 22 -47 40 -54 40 -8 0 -30 16 -48 35 -19 19 -39 35 -44 35 -17 0 -81 44
-82 55 0 6 -23 21 -51 35 -29 13 -54 32 -56 41 -3 9 -22 22 -44 29 -21 7 -39
17 -39 22 0 4 -6 8 -13 8 -7 0 -24 11 -39 25 -15 14 -34 25 -41 25 -8 0 -17 7
-21 15 -3 8 -12 15 -21 15 -8 0 -15 3 -15 8 0 4 -18 15 -40 25 -22 9 -40 21
-40 27 0 5 -5 10 -10 10 -6 0 -20 9 -32 20 -12 10 -25 17 -30 14 -4 -3 -8 0
-8 5 0 6 -6 11 -14 11 -8 0 -16 7 -20 15 -3 8 -12 15 -21 15 -8 0 -15 4 -15 9
0 5 -16 15 -36 21 -19 7 -38 18 -41 26 -3 8 -11 14 -19 14 -8 0 -14 5 -14 10
0 6 -7 10 -15 10 -9 0 -27 11 -41 25 -14 14 -34 25 -44 25 -11 0 -20 4 -20 9
0 5 -18 16 -40 25 -22 9 -40 20 -40 25 0 5 -12 12 -26 15 -14 4 -35 16 -47 27
-12 11 -33 23 -46 26 -14 3 -34 15 -45 25 -11 10 -26 18 -34 18 -7 0 -20 7
-29 15 -8 9 -28 19 -44 22 -16 3 -29 12 -29 19 0 8 -7 14 -15 14 -8 0 -15 4
-15 9 0 5 -20 15 -45 22 -25 7 -45 19 -45 26 0 7 -5 13 -12 13 -12 0 -138 60
-148 70 -14 15 -61 40 -75 40 -8 0 -15 4 -15 9 0 5 -15 12 -33 15 -18 3 -39
15 -47 26 -8 11 -22 20 -32 20 -10 0 -18 5 -18 10 0 6 -10 10 -23 10 -31 0
-77 22 -77 38 0 6 -8 12 -17 12 -10 0 -27 7 -37 15 -11 8 -29 15 -41 15 -12 0
-31 9 -43 21 -12 11 -36 25 -52 31 -17 5 -30 14 -30 19 0 5 -12 9 -26 9 -34 0
-94 29 -94 45 0 7 -25 18 -60 25 -33 7 -60 16 -60 20 0 4 -12 11 -26 14 -15 4
-33 14 -41 22 -8 8 -35 19 -59 25 -24 6 -47 15 -50 20 -3 5 -14 9 -25 9 -10 0
-19 7 -19 15 0 9 -9 15 -25 15 -14 0 -25 4 -25 9 0 5 -20 12 -45 15 -25 4 -45
11 -45 16 0 5 -13 11 -30 15 -16 4 -30 10 -30 15 0 4 -29 16 -65 25 -36 10
-68 22 -71 27 -3 4 -16 8 -30 8 -14 0 -24 6 -24 14 0 17 -22 26 -66 26 -19 0
-34 4 -34 10 0 5 -20 15 -45 21 -25 6 -45 17 -45 24 0 13 -43 25 -86 25 -13 0
-24 5 -24 10 0 6 -10 10 -23 10 -30 0 -77 22 -77 36 0 6 -23 14 -52 17 -28 4
-54 10 -57 14 -6 9 -84 32 -133 41 -16 2 -28 8 -28 13 0 5 -9 9 -20 9 -11 0
-20 5 -20 10 0 6 -18 10 -40 10 -22 0 -40 4 -40 8 0 4 -20 13 -45 20 -25 7
-45 16 -45 21 0 5 -27 12 -60 16 -33 4 -60 11 -60 16 0 4 -17 11 -37 14 -21 4
-47 10 -58 15 -40 17 -89 30 -111 30 -13 0 -24 4 -24 9 0 5 -20 12 -45 15 -25
4 -45 11 -45 17 0 5 -13 9 -29 9 -17 0 -33 5 -36 10 -3 6 -14 10 -24 10 -10 0
-43 7 -72 16 -53 15 -104 29 -164 44 -16 4 -53 15 -81 24 -29 9 -61 16 -71 16
-11 0 -44 8 -74 19 -31 10 -80 22 -110 26 -30 4 -56 11 -59 16 -3 5 -33 11
-65 15 -33 4 -62 10 -65 14 -5 7 -100 26 -187 37 -24 3 -43 9 -43 14 0 5 -15
9 -32 9 -18 0 -54 6 -79 14 -25 8 -76 17 -113 21 -36 4 -69 11 -72 16 -3 5
-34 9 -69 9 -35 0 -65 4 -67 9 -1 5 -59 17 -128 26 -69 9 -133 21 -142 26 -10
5 -61 9 -113 9 -75 0 -95 3 -95 14 0 15 -16 17 -205 31 -44 4 -85 11 -92 17
-7 5 -92 14 -189 19 -98 4 -180 12 -183 18 -3 5 -70 11 -147 14 -78 3 -193 13
-255 21 -63 8 -127 15 -144 15 -16 0 -345 3 -731 6 -385 3 -702 4 -705 1z
m2416 -2602 c-18 -14 -19 -26 -3 -42 6 -6 13 -22 15 -34 1 -13 5 -34 8 -46 3
-14 2 -21 -4 -18 -10 6 -3 -32 9 -49 4 -5 10 -37 14 -69 4 -33 10 -64 15 -70
5 -6 12 -26 16 -44 4 -18 13 -45 20 -59 8 -15 12 -30 9 -35 -3 -4 -1 -8 4 -8
4 0 15 -23 23 -52 7 -28 24 -62 36 -74 12 -12 25 -33 28 -47 4 -14 15 -34 26
-46 10 -11 19 -25 19 -32 0 -6 12 -23 28 -38 15 -15 41 -44 57 -65 17 -21 42
-49 57 -63 15 -14 24 -31 21 -39 -3 -9 2 -14 15 -14 12 0 23 -9 27 -20 3 -11
15 -20 26 -20 10 0 19 -4 19 -10 0 -5 4 -10 10 -10 15 0 110 -70 110 -82 0 -5
4 -7 9 -4 5 3 14 0 20 -8 7 -8 24 -17 38 -21 15 -3 39 -15 54 -26 15 -10 43
-21 64 -24 20 -2 61 -16 90 -30 30 -14 60 -25 68 -25 7 0 17 -3 21 -7 3 -4 17
-8 29 -10 12 -2 51 -12 86 -24 35 -11 70 -18 77 -15 8 3 14 1 14 -4 0 -6 8
-10 18 -10 25 0 56 -35 49 -54 -7 -19 -133 -80 -146 -72 -5 4 -13 2 -16 -4 -4
-6 -32 -10 -63 -9 -31 1 -61 0 -67 -1 -44 -8 -233 1 -268 13 -23 8 -62 21 -87
28 -25 7 -62 21 -82 31 -21 10 -47 18 -59 18 -12 0 -41 16 -65 35 -23 19 -49
35 -58 35 -9 0 -21 9 -28 20 -7 11 -18 20 -24 20 -13 0 -84 67 -84 80 0 5 -11
12 -25 16 -14 3 -25 10 -25 15 0 5 -29 38 -65 73 -36 35 -65 69 -65 75 0 11
-46 82 -59 91 -4 3 -13 21 -21 40 -7 19 -22 46 -33 60 -11 14 -14 26 -8 28 7
2 5 9 -4 19 -8 8 -15 23 -15 34 0 11 -5 29 -11 40 -14 27 -27 106 -34 204 -2
44 -6 96 -7 115 -3 38 18 185 34 240 13 46 40 100 51 100 4 0 5 5 2 10 -4 6 7
13 24 16 16 4 32 13 35 21 5 12 10 10 26 -8 16 -21 17 -26 5 -35z m-8017 -271
c26 -21 55 -45 65 -55 10 -10 22 -18 26 -18 5 0 32 -22 61 -50 29 -27 59 -50
69 -50 20 0 93 -38 103 -54 4 -6 8 -8 8 -3 0 11 60 -22 60 -33 0 -6 7 -10 15
-10 8 0 23 -4 33 -10 9 -5 44 -21 77 -36 33 -15 62 -30 65 -34 3 -4 28 -12 55
-19 28 -7 64 -18 80 -25 32 -14 151 -51 200 -62 17 -4 32 -10 35 -14 6 -8 168
-39 260 -51 36 -4 88 -12 115 -17 28 -5 93 -13 145 -17 52 -4 101 -12 108 -18
18 -15 663 -15 694 0 13 6 89 17 171 24 81 7 147 15 147 19 0 4 37 10 83 14
122 9 217 29 217 46 0 4 44 13 98 19 92 12 161 28 172 42 9 11 155 49 188 49
20 0 32 5 32 13 0 9 39 21 118 36 64 13 173 37 242 53 153 37 261 54 450 74
322 33 890 55 890 34 0 -6 31 -10 78 -10 42 0 127 -5 187 -12 61 -6 126 -11
145 -11 67 1 212 -19 238 -33 15 -8 51 -14 80 -14 28 0 52 -4 52 -9 0 -5 23
-14 50 -21 28 -7 50 -16 50 -21 0 -4 23 -11 50 -15 28 -4 50 -10 50 -15 0 -7
49 -21 85 -24 6 0 26 -8 45 -17 19 -9 59 -27 88 -39 28 -12 52 -26 52 -31 0
-4 8 -8 18 -8 9 0 35 -11 57 -24 22 -13 63 -36 90 -51 28 -15 92 -57 144 -94
52 -36 112 -79 135 -95 82 -58 207 -169 328 -295 311 -321 527 -692 644 -1111
27 -93 27 -102 31 -449 2 -195 -3 -704 -11 -1130 -9 -427 -16 -831 -16 -898
l0 -123 102 0 c184 0 530 -21 672 -40 113 -16 225 -21 605 -26 496 -7 689 1
931 36 170 24 174 25 675 149 108 26 202 45 230 46 6 0 12 3 15 6 3 3 24 9 48
12 l43 5 -1 -1931 c-2 -1704 0 -1940 14 -2003 58 -267 246 -578 469 -772 121
-105 250 -184 527 -322 537 -268 981 -534 1250 -749 134 -107 357 -326 464
-457 129 -158 251 -370 307 -531 10 -31 19 -57 19 -58 0 -5 -250 -86 -1195
-384 -88 -28 -161 -46 -163 -41 -2 5 -34 55 -72 112 -133 201 -310 377 -515
514 -60 41 -137 94 -170 118 -33 24 -96 63 -140 86 -44 23 -87 48 -95 55 -8 7
-100 56 -205 108 -415 208 -798 480 -1106 787 -212 211 -401 476 -554 775
-113 221 -158 452 -175 905 -11 303 -12 844 -2 940 4 36 6 236 4 446 l-4 381
-447 12 c-245 6 -468 13 -496 15 -139 10 -317 27 -370 35 -91 15 -248 47 -265
54 -8 3 -28 7 -45 10 -16 2 -77 18 -135 35 -58 17 -123 32 -145 34 l-40 3 -2
-105 c-1 -58 -4 -775 -5 -1594 -4 -1445 -4 -1489 -23 -1502 -10 -8 -15 -17
-10 -21 4 -5 10 -2 12 5 9 23 20 12 19 -18 -1 -23 -6 -30 -21 -31 -11 0 -14
-3 -7 -6 6 -2 12 -11 12 -19 0 -8 3 -14 8 -14 7 0 5 -3366 -3 -3387 -3 -10
-42 -13 -148 -13 -116 0 -147 -3 -157 -15 -11 -13 -396 -15 -3301 -15 -2058 0
-3289 3 -3289 9 0 6 -772 10 -2052 11 -1704 1 -2219 3 -2376 10 -9 0 -11 488
-8 2416 2 1520 7 2419 13 2423 6 3 13 49 16 102 7 105 33 296 47 344 5 17 25
100 45 185 94 397 296 916 509 1310 99 182 259 448 297 494 39 46 49 60 49 67
0 4 6 14 13 21 6 7 25 33 41 58 16 25 35 49 43 53 7 4 13 15 13 22 0 8 5 15
10 15 6 0 13 7 17 15 7 19 111 141 151 177 81 73 163 161 177 191 9 20 21 37
27 37 5 0 18 9 30 20 12 11 27 20 34 20 6 0 14 7 18 15 3 8 10 15 16 15 5 0
41 30 79 68 77 75 151 140 187 162 13 8 24 20 24 27 0 7 7 13 15 13 8 0 31 16
51 35 19 19 43 35 53 35 9 0 34 16 54 35 20 19 43 35 51 35 8 0 16 7 20 15 3
8 12 15 21 15 8 0 15 4 15 8 0 5 25 22 55 37 30 16 55 32 55 36 0 4 20 16 44
28 25 11 48 27 53 34 4 8 26 20 48 27 22 7 42 16 45 20 3 4 29 19 58 34 28 14
52 30 52 35 0 5 16 12 36 15 19 4 37 13 40 21 3 8 19 17 35 20 16 4 29 11 29
16 0 5 13 9 30 9 16 0 33 6 37 14 4 7 31 20 58 29 102 32 125 42 125 54 0 6
15 14 33 18 31 7 49 14 169 69 31 14 68 26 82 26 14 0 26 5 26 10 0 6 6 10 13
10 17 0 191 53 197 60 7 9 84 30 109 30 11 0 21 5 21 10 0 6 18 10 40 10 22 0
40 5 40 10 0 6 13 10 29 10 16 0 31 5 33 10 2 6 71 23 153 37 83 15 152 30
155 34 3 3 35 10 73 13 57 7 67 5 67 -8 0 -9 7 -16 15 -16 8 0 15 8 15 19 0
24 46 30 305 37 110 3 205 10 212 16 7 6 178 8 450 7 241 -2 494 -2 563 -1 69
1 172 -3 230 -8 58 -5 204 -15 325 -21 121 -6 252 -15 290 -21 39 -5 124 -11
190 -12 66 -2 138 -8 160 -14 22 -6 101 -18 175 -26 74 -9 155 -20 180 -25 25
-6 59 -13 75 -16 17 -4 39 -10 50 -15 11 -5 56 -11 99 -14 43 -3 84 -10 90
-15 6 -5 49 -14 96 -21 47 -6 90 -15 95 -20 6 -4 44 -13 85 -18 41 -6 113 -21
160 -32 47 -12 114 -25 150 -29 65 -8 476 -117 495 -131 6 -5 37 -11 70 -15
33 -4 65 -11 70 -15 6 -4 37 -12 70 -18 142 -26 328 -74 435 -112 122 -43 352
-93 389 -83 12 3 24 16 28 32 10 39 9 784 -1 1191 -9 355 -9 355 -38 445 -38
116 -73 179 -165 292 -126 156 -259 261 -449 354 -56 27 -107 49 -113 49 -6 0
-11 7 -11 15 0 11 -12 15 -44 15 -25 0 -47 4 -50 9 -3 5 -28 14 -56 21 -27 7
-50 15 -50 19 0 4 -38 13 -85 20 -47 7 -85 16 -85 20 0 19 -260 36 -550 36
-302 -1 -461 -11 -600 -41 -36 -7 -84 -14 -107 -14 -23 0 -43 -4 -45 -10 -1
-5 -30 -15 -63 -21 -33 -6 -65 -15 -70 -19 -6 -5 -35 -12 -65 -15 -30 -4 -101
-22 -158 -41 -57 -19 -112 -34 -122 -34 -10 0 -20 -4 -22 -8 -4 -10 -165 -63
-278 -92 -47 -12 -92 -27 -100 -34 -8 -7 -44 -19 -80 -26 -36 -7 -69 -16 -75
-20 -11 -8 -74 -19 -245 -45 -58 -9 -130 -22 -160 -28 -80 -17 -812 -17 -817
1 -3 6 -15 12 -28 12 -12 0 -63 12 -111 26 -49 14 -120 35 -159 46 -38 10 -74
23 -80 27 -5 5 -35 16 -65 26 -30 10 -89 36 -130 58 -41 21 -124 64 -185 94
-60 31 -112 59 -115 63 -3 4 -31 23 -63 43 -70 45 -207 156 -207 169 0 5 -11
20 -24 33 -14 13 -27 34 -31 45 -3 11 -12 20 -18 20 -13 0 -127 227 -127 252
0 9 -6 18 -14 21 -8 3 -17 24 -21 46 -4 23 -10 41 -15 41 -4 0 -14 23 -21 50
-7 28 -16 50 -20 50 -3 0 -9 22 -13 49 -4 27 -12 51 -19 54 -17 6 -44 143 -52
257 -3 46 -10 87 -14 90 -19 12 -34 307 -28 558 3 139 9 257 12 262 10 17 25
11 73 -27z m12042 -5437 c185 -97 210 -365 45 -484 -62 -45 -96 -52 -246 -52
l-139 0 0 281 0 281 153 -4 c124 -3 158 -7 187 -22z m627 -226 c63 -135 120
-260 128 -277 l14 -33 -60 0 -59 0 -25 55 -24 55 -136 0 -135 0 -27 -55 -27
-55 -59 0 c-32 0 -57 4 -55 9 2 5 61 131 133 280 l129 272 45 -3 44 -3 114
-245z m510 220 c70 -31 103 -105 83 -181 -11 -41 -50 -91 -79 -100 -10 -4 -5
-13 16 -35 18 -18 39 -57 53 -99 12 -39 29 -83 37 -98 l14 -28 -62 3 -62 3
-30 88 c-32 97 -61 127 -123 127 -28 0 -32 -3 -38 -37 -3 -21 -6 -71 -6 -110
l0 -73 -50 0 -50 0 0 280 0 280 128 0 c104 0 135 -4 169 -20z m303 -152 c0
-148 3 -179 19 -215 23 -49 62 -73 121 -73 59 0 98 24 121 73 16 36 19 67 19
215 l0 172 55 0 55 0 0 -173 c0 -216 -11 -262 -79 -327 -50 -49 -102 -70 -171
-70 -69 0 -121 21 -171 70 -68 65 -79 111 -79 327 l0 173 55 0 55 0 0 -172z
m610 -58 l0 -230 135 0 135 0 0 -50 0 -50 -190 0 -190 0 0 280 0 280 55 0 55
0 0 -230z m690 110 l0 -110 110 0 110 0 0 110 0 110 55 0 55 0 0 -280 0 -280
-55 0 -54 0 -3 123 -3 122 -107 3 -108 3 0 -126 0 -125 -55 0 -55 0 0 280 0
280 55 0 55 0 0 -110z m540 -62 c0 -148 3 -179 19 -215 23 -49 62 -73 121 -73
59 0 98 24 121 73 16 36 19 67 19 215 l0 172 55 0 55 0 0 -173 c0 -216 -11
-262 -79 -327 -131 -128 -354 -72 -406 102 -11 38 -15 98 -15 225 l0 173 55 0
55 0 0 -172z m845 145 c213 -114 191 -445 -34 -521 -19 -7 -94 -12 -172 -12
l-139 0 0 281 0 281 153 -4 c132 -3 157 -6 192 -25z m612 -233 c63 -135 120
-260 128 -277 l14 -33 -59 0 -59 0 -25 55 -25 55 -136 0 -135 0 -27 -55 -27
-55 -59 0 c-32 0 -57 4 -55 9 2 5 61 131 133 280 l130 272 44 -3 44 -3 114
-245z m-4193 -765 c30 -15 65 -39 78 -52 l22 -24 -36 -36 -36 -36 -38 31 c-38
30 -108 53 -142 47 -9 -2 -29 -6 -44 -10 -34 -7 -94 -58 -114 -96 -23 -45 -18
-125 11 -175 35 -59 116 -99 182 -90 64 8 107 35 111 69 3 25 1 27 -35 27 -73
0 -83 7 -83 56 l0 44 110 0 110 0 0 -99 c0 -99 0 -99 -31 -126 -54 -45 -110
-68 -180 -73 -127 -9 -233 50 -288 159 -83 166 1 348 189 410 49 17 156 3 214
-26z m-608 0 c72 -36 99 -81 99 -166 0 -60 -3 -71 -31 -106 -44 -55 -104 -83
-181 -83 l-63 0 0 -90 0 -90 -55 0 -55 0 0 280 0 280 118 0 c106 0 123 -3 168
-25z m1461 -225 c63 -135 120 -260 128 -277 l14 -33 -59 0 -59 0 -25 55 -25
55 -136 0 -135 0 -27 -55 -27 -55 -59 0 c-32 0 -57 4 -55 9 2 5 61 131 133
280 l129 272 45 -3 44 -3 114 -245z m1498 215 l47 -27 -39 -40 -40 -40 -34 21
c-43 27 -89 27 -123 0 -52 -41 -24 -80 93 -128 111 -45 151 -91 151 -174 0
-89 -82 -157 -190 -157 -68 0 -108 11 -167 46 l-45 26 38 39 39 39 49 -25 c73
-37 131 -31 156 15 18 34 -6 59 -103 104 -120 56 -149 87 -155 163 -5 72 21
117 88 151 63 33 167 27 235 -13z m-988 5 c70 -31 103 -105 83 -181 -11 -41
-50 -91 -79 -100 -10 -4 -5 -13 16 -35 18 -18 39 -57 53 -99 12 -39 29 -83 37
-98 l14 -28 -62 3 -62 3 -30 88 c-32 97 -61 127 -123 127 -28 0 -32 -3 -38
-37 -3 -21 -6 -71 -6 -110 l0 -73 -50 0 -50 0 0 280 0 280 128 0 c104 0 135
-4 169 -20z m583 -30 l0 -50 -75 0 -75 0 0 -230 0 -230 -55 0 -55 0 0 230 0
229 -77 3 -78 3 -3 48 -3 47 210 0 211 0 0 -50z m2015 15 l47 -27 -39 -40 -40
-40 -34 21 c-43 27 -89 27 -123 0 -52 -41 -25 -79 95 -128 108 -45 149 -93
149 -174 0 -89 -82 -157 -190 -157 -68 0 -108 11 -167 46 l-45 26 38 39 39 39
49 -25 c73 -37 131 -31 156 15 18 34 -6 59 -103 104 -120 56 -149 87 -155 163
-5 72 21 117 88 151 63 33 167 27 235 -13z m-865 -26 l0 -52 -130 8 -130 7 0
-66 0 -66 103 -1 c164 -1 163 -1 153 -53 l-7 -35 -127 -3 -127 -3 -3 -122 -3
-123 -49 0 -50 0 0 280 0 280 185 0 185 0 0 -51z m460 6 l0 -45 -130 0 -130 0
0 -65 0 -65 110 -1 c61 -1 115 -3 120 -4 6 -1 15 -3 20 -4 12 -1 13 -51 2 -68
-5 -8 -48 -13 -132 -15 l-125 -3 0 -75 0 -75 133 -3 132 -3 0 -44 0 -45 -185
0 -185 0 0 280 0 280 185 0 185 0 0 -45z m940 -5 l0 -50 -75 0 -75 0 0 -230 0
-230 -55 0 -55 0 0 230 0 229 -77 3 -78 3 -3 48 -3 47 210 0 211 0 0 -50z
m-5125 -949 c82 -37 119 -114 96 -200 -13 -48 -28 -73 -108 -173 -29 -37 -53
-69 -53 -72 0 -4 41 -6 90 -6 l90 0 0 -50 0 -50 -206 0 -206 0 40 48 c22 26
79 92 126 147 108 125 132 171 116 219 -21 64 -100 72 -164 15 l-33 -28 -37
38 -38 39 40 33 c22 18 55 39 73 45 50 18 128 16 174 -5z m508 4 c156 -65 208
-328 94 -476 -87 -114 -242 -120 -337 -13 -127 146 -83 417 80 488 45 20 118
20 163 1z m492 -14 c82 -37 119 -114 96 -200 -13 -48 -28 -73 -108 -173 -29
-37 -53 -69 -53 -72 0 -4 41 -6 90 -6 l90 0 0 -50 0 -50 -206 0 -206 0 40 48
c22 26 79 92 126 147 108 125 132 171 116 219 -21 64 -100 72 -164 15 l-33
-28 -37 38 -38 39 40 33 c22 18 55 39 73 45 50 18 128 16 174 -5z m1230 0 c82
-37 119 -114 96 -200 -13 -48 -28 -73 -108 -173 -29 -37 -53 -69 -53 -72 0 -4
41 -6 90 -6 l90 0 0 -50 0 -50 -207 0 -206 0 19 23 c166 186 250 293 265 336
34 96 -80 145 -165 70 l-33 -28 -37 38 -38 39 40 33 c22 18 55 39 73 45 50 18
128 16 174 -5z m-715 -166 l0 -175 40 0 40 0 0 -45 0 -45 -40 0 -40 0 0 -60 0
-60 -55 0 -55 0 0 60 0 60 -130 0 -130 0 0 38 c0 34 16 60 138 220 l137 181
48 1 47 0 0 -175z m1290 115 l0 -50 -114 0 c-125 0 -126 -1 -126 -63 l0 -32
78 0 c69 0 83 -3 121 -28 123 -82 100 -273 -41 -332 -78 -32 -191 -12 -262 47
l-37 31 37 38 c37 38 38 39 58 20 34 -30 62 -41 108 -41 45 0 78 19 97 57 18
35 13 53 -23 89 -30 30 -40 34 -85 34 -27 0 -62 -5 -76 -12 -23 -10 -29 -9
-54 18 l-27 29 14 123 15 122 158 0 159 0 0 -50z m-940 -270 l0 -50 -110 0
-110 0 0 50 0 50 110 0 110 0 0 -50z m330 -3649 c6 -22 15 -64 20 -93 9 -54
19 -952 20 -1823 l0 -490 468 0 c481 0 516 -2 592 -42 14 -7 35 -13 47 -13 25
0 84 -29 96 -47 4 -7 15 -13 23 -13 8 0 32 -11 54 -25 22 -14 44 -25 49 -25
12 0 145 -91 149 -102 2 -4 8 -8 14 -8 6 0 32 -18 57 -41 74 -66 261 -252 261
-260 0 -4 14 -22 31 -41 44 -47 52 -57 89 -112 32 -48 52 -81 108 -188 14 -27
29 -48 33 -48 5 0 9 -4 9 -10 0 -5 14 -39 30 -75 17 -36 30 -69 30 -73 0 -4
11 -34 24 -67 13 -33 37 -107 54 -165 63 -215 61 -152 66 -1790 2 -822 1
-1526 -4 -1565 -12 -105 -37 -210 -65 -267 -14 -29 -25 -57 -25 -62 0 -9 -23
-62 -62 -139 -30 -61 -72 -134 -84 -148 -8 -8 -14 -20 -14 -25 0 -6 -8 -19
-18 -30 -10 -10 -40 -50 -66 -87 -27 -38 -57 -74 -67 -80 -11 -7 -19 -16 -19
-22 0 -13 -216 -225 -229 -225 -6 0 -21 -10 -34 -22 -59 -56 -190 -148 -209
-148 -5 0 -18 -9 -30 -20 -12 -11 -32 -20 -45 -20 -13 0 -23 -4 -23 -10 0 -5
-5 -10 -12 -10 -6 0 -19 -6 -27 -13 -9 -7 -42 -22 -73 -32 -32 -11 -58 -22
-58 -26 0 -9 -31 -16 -121 -29 -40 -6 -77 -16 -81 -23 -6 -9 -198 -14 -830
-19 -453 -3 -939 -8 -1080 -11 -205 -4 -259 -3 -268 8 -30 36 -36 380 -45
2620 -5 1130 -14 2267 -19 2272 -1 1 -225 3 -497 3 l-494 2 3 -2455 3 -2455
-673 1 -673 2 -1 40 c-2 58 -13 1663 -24 3379 -8 1161 -13 1492 -22 1504 -11
12 -34 14 -138 9 -150 -8 -233 -20 -320 -49 -282 -91 -497 -313 -582 -603 -19
-66 -21 -107 -28 -670 -5 -330 -11 -775 -14 -990 -3 -214 -9 -730 -12 -1145
-3 -415 -10 -766 -14 -780 -5 -14 -11 -175 -13 -359 -4 -269 -7 -335 -18 -342
-20 -12 -420 -16 -525 -5 -24 3 -56 30 -47 40 4 3 -8 1 -26 -5 -17 -6 -35 -9
-38 -6 -3 4 -14 -4 -23 -16 -18 -21 -24 -22 -258 -23 -137 -1 -246 3 -253 8
-11 7 -11 11 -1 15 23 9 12 23 -19 23 -25 0 -29 -3 -24 -19 8 -26 -17 -31
-152 -31 -106 0 -113 1 -113 20 0 11 7 20 15 20 15 0 43 21 103 78 18 17 37
32 42 32 4 0 11 11 14 25 4 14 11 25 16 25 6 0 10 11 10 24 0 14 7 31 15 39
35 35 37 137 44 2252 4 1144 10 2085 14 2092 4 6 14 82 23 169 12 112 24 177
41 223 14 36 29 84 34 106 6 22 16 47 24 55 7 8 18 34 24 56 6 23 18 47 26 54
8 7 15 16 15 20 0 18 89 155 128 195 12 13 22 29 22 35 0 6 7 13 15 16 8 4 15
11 15 16 0 43 376 376 426 378 7 0 14 6 17 14 3 7 27 24 54 38 26 13 68 36 93
50 25 14 70 36 100 48 30 12 73 30 95 40 55 24 164 55 265 77 80 17 178 18
1708 18 l1622 0 2 265 c8 1080 -11 1510 -77 1674 -15 37 -25 69 -23 71 1 1
212 69 468 150 256 80 553 175 660 210 107 35 200 64 207 64 7 1 17 -17 23
-38z m-7745 -2251 c208 -13 251 -20 363 -65 394 -159 671 -500 797 -982 29
-111 43 -217 26 -193 -15 21 -14 5 3 -35 10 -24 18 -110 26 -271 6 -131 14
-242 17 -248 4 -6 6 -565 5 -1243 -2 -1216 -3 -1234 -23 -1285 -19 -50 -46
-162 -74 -313 -7 -38 -20 -90 -29 -115 -9 -25 -27 -78 -41 -118 -131 -381
-531 -808 -952 -1014 -68 -33 -123 -64 -123 -69 0 -5 -7 -9 -15 -9 -22 0 -262
-131 -375 -205 -62 -40 -127 -96 -187 -157 -132 -138 -164 -209 -188 -421 -8
-73 -15 -135 -15 -139 0 -5 -4 -8 -8 -8 -5 0 -17 44 -26 98 -21 122 -66 266
-113 359 l-35 73 -1337 2 -1336 3 -3 27 c-2 14 -10 29 -18 32 -8 3 -13 2 -10
-2 3 -5 -2 -9 -10 -9 -9 0 -13 6 -10 14 3 8 2 12 -3 9 -5 -3 -25 1 -45 9 -36
15 -37 15 -27 -4 8 -14 8 -20 -1 -23 -10 -4 -10 -10 -1 -31 l13 -27 -81 0
c-48 0 -78 4 -74 9 6 11 -22 27 -48 26 -10 0 -21 -5 -25 -11 -5 -8 -142 -13
-468 -16 -444 -4 -461 -4 -451 14 7 10 15 18 18 18 11 0 2 64 -10 68 -6 2 -11
11 -11 20 0 13 -3 13 -12 4 -10 -10 -10 -15 1 -21 10 -7 11 -13 2 -30 -15 -28
-25 -27 -40 5 -10 22 -9 28 6 40 16 12 16 13 2 14 -9 0 -25 -12 -34 -27 -17
-25 -17 -28 0 -57 10 -17 24 -36 32 -43 11 -9 -25 -11 -159 -12 -95 0 -183 3
-195 6 -27 6 -31 23 -6 23 14 0 14 2 -2 20 -24 27 -35 25 -35 -5 0 -19 -8 -28
-27 -36 -30 -12 -143 -4 -152 10 -12 18 -51 22 -79 7 -16 -8 -58 -18 -93 -21
-89 -7 -991 -32 -1006 -27 -6 2 -13 9 -15 15 -2 7 -1 669 2 1472 4 1073 2
1480 -7 1535 -19 129 -72 289 -118 360 -23 36 -50 80 -60 99 -40 79 -295 301
-346 301 -6 0 -41 11 -78 24 -104 37 -204 50 -354 43 -150 -7 -216 -22 -335
-78 -196 -91 -359 -254 -464 -464 -52 -104 -88 -210 -88 -263 0 -26 -5 -65
-11 -87 -6 -26 -9 -428 -9 -1146 1 -1049 0 -1107 -17 -1124 -17 -17 -43 -18
-428 -12 -225 4 -609 7 -852 7 -289 0 -443 3 -443 10 0 6 8 10 19 10 14 0 104
61 131 90 3 3 19 13 35 22 17 9 32 25 34 34 2 10 15 30 30 44 15 14 31 37 34
52 4 15 13 33 21 40 13 13 46 218 46 285 0 17 5 33 10 35 14 4 15 1041 0 1046
-14 5 -14 332 0 332 6 0 10 64 10 173 0 177 29 464 48 476 5 3 13 26 16 51 4
25 11 54 15 65 5 11 21 54 36 95 77 208 261 505 424 685 89 98 264 266 341
328 310 250 697 439 1061 519 92 20 131 22 344 22 216 0 256 -3 395 -27 85
-15 164 -31 175 -36 11 -5 54 -17 95 -26 106 -25 293 -95 450 -172 74 -35 137
-68 140 -71 3 -4 22 -15 42 -26 20 -10 45 -26 55 -35 10 -9 35 -24 55 -35 20
-10 53 -34 74 -52 20 -19 40 -34 45 -34 5 0 13 -9 19 -20 6 -11 16 -20 23 -20
13 0 219 -207 275 -275 18 -22 60 -80 93 -130 32 -49 64 -96 70 -103 19 -23
88 -157 124 -242 51 -119 125 -338 125 -370 0 -14 4 -30 9 -36 17 -18 40 -139
51 -264 10 -121 7 -910 -6 -1255 -8 -224 -24 -508 -29 -526 -3 -9 3 -27 14
-40 l19 -24 869 2 c477 0 1107 4 1399 8 l532 7 -23 34 c-66 98 -154 358 -155
457 0 48 -38 179 -72 252 l-33 70 -3 1337 c-3 1310 -2 1340 18 1465 38 239 93
411 191 608 90 182 177 303 319 445 164 164 370 298 525 340 17 5 71 20 120
35 87 25 104 26 480 36 362 9 528 12 890 16 77 1 212 -2 300 -7z m1425 -7160
c0 -5 -12 -10 -27 -9 -25 0 -26 1 -8 9 27 12 35 12 35 0z m4313 -597 c4 -71 7
-257 7 -414 l0 -286 -107 -6 c-212 -13 -299 20 -361 138 -23 43 -27 62 -27
140 0 81 3 95 29 143 60 108 167 153 308 129 l47 -8 -6 145 -6 146 55 0 55 0
6 -127z m-1568 -69 l7 -175 22 19 c57 53 162 70 224 38 41 -21 80 -70 91 -114
6 -20 13 -124 17 -229 l7 -193 -55 0 -55 0 -7 192 c-5 157 -10 198 -24 223
-39 66 -115 70 -183 8 l-39 -35 0 -199 0 -199 -54 0 -53 0 -5 413 c-3 226 -3
415 -1 420 2 4 26 7 52 7 l49 0 7 -176z m-3083 79 c3 -32 6 -215 7 -407 1
-192 4 -352 6 -357 8 -11 -160 -22 -241 -16 -97 9 -146 30 -194 85 -109 123
-87 340 43 429 62 41 141 58 208 44 27 -6 53 -11 57 -11 4 0 6 65 4 145 l-4
145 55 0 55 0 4 -57z m-1237 -137 c11 -272 4 -430 -24 -493 -27 -62 -92 -125
-159 -156 -40 -18 -66 -21 -172 -22 -122 0 -127 1 -192 33 -100 49 -158 132
-164 232 -1 30 -5 171 -9 313 l-6 257 59 0 c60 0 60 0 65 -32 2 -18 5 -136 6
-263 3 -311 11 -348 89 -400 102 -67 281 -47 347 39 42 55 47 109 40 388 -4
141 -4 261 0 267 3 6 30 11 60 11 l53 0 7 -174z m3575 144 c25 -25 25 -51 2
-80 -34 -42 -112 -15 -112 39 0 54 70 81 110 41z m-5560 2 c0 -4 -65 -94 -145
-198 l-144 -189 -1 -227 0 -228 -58 0 -59 0 -6 143 c-4 78 -7 179 -7 224 l0
81 -156 194 -156 193 62 3 c35 2 69 1 76 -2 7 -3 61 -65 119 -138 59 -73 111
-133 116 -133 5 0 55 61 112 135 65 85 111 136 125 140 42 9 122 11 122 2z
m4680 -12 c57 -57 -31 -139 -90 -85 -24 22 -26 53 -4 83 19 28 67 29 94 2z
m-5777 -127 c4 -71 7 -257 7 -414 l0 -286 -107 -6 c-212 -13 -299 20 -361 138
-23 43 -27 62 -27 140 0 81 3 95 29 143 60 108 167 153 308 129 l47 -8 -6 145
-6 146 55 0 55 0 6 -127z m4571 105 c21 -29 20 -51 -2 -78 -22 -27 -65 -29
-92 -5 -42 38 -12 105 45 105 24 0 39 -7 49 -22z m-7330 -32 c106 -32 162
-111 154 -218 -5 -65 -25 -101 -76 -133 -34 -22 -40 -35 -17 -35 25 0 88 -36
117 -67 87 -91 73 -235 -29 -307 -73 -51 -103 -58 -300 -63 l-183 -6 0 114 c0
63 -3 252 -7 422 l-6 307 150 0 c100 0 165 -5 197 -14z m1530 -48 c21 -29 20
-51 -2 -78 -22 -27 -65 -29 -92 -5 -42 38 -12 105 45 105 24 0 39 -7 49 -22z
m2976 -114 l0 -57 85 7 85 7 0 -50 0 -51 -47 0 c-27 0 -65 -3 -85 -6 l-38 -7
0 -131 c0 -169 9 -202 58 -217 36 -10 60 -6 135 26 15 6 17 1 17 -44 0 -58 -7
-64 -90 -82 -103 -22 -200 29 -221 117 -4 22 -9 105 -9 186 l0 147 -51 3 -51
3 97 103 c53 56 101 102 106 102 5 0 9 -25 9 -56z m6497 29 c78 -27 143 -134
143 -234 l0 -39 -191 0 -192 0 6 -37 c7 -42 30 -77 71 -107 44 -33 163 -30
236 6 30 15 56 25 58 23 3 -2 7 -24 9 -49 l5 -44 -53 -28 c-42 -21 -72 -28
-136 -32 -45 -2 -97 -2 -116 2 -56 11 -123 71 -158 142 -30 60 -31 69 -27 151
5 96 20 136 72 191 71 76 163 95 273 55z m-1147 -11 c45 -17 45 -18 48 -70 2
-28 2 -52 0 -52 -2 0 -30 11 -63 25 -74 30 -118 32 -145 5 -11 -11 -20 -23
-20 -28 0 -21 36 -54 96 -87 124 -69 170 -126 162 -200 -11 -91 -77 -138 -193
-138 -45 0 -88 7 -120 19 l-50 20 -3 57 c-2 31 -1 57 2 57 2 0 28 -12 57 -27
30 -14 75 -28 101 -31 40 -4 50 -1 72 21 38 38 24 63 -65 117 -111 67 -135 86
-153 124 -34 72 -7 153 64 188 45 23 150 23 210 0z m-790 -17 c14 -7 35 -24
47 -37 44 -46 51 -84 59 -296 l7 -202 -34 0 c-19 0 -43 -3 -55 -6 -21 -5 -21
-2 -28 187 -10 258 -23 287 -128 277 -39 -4 -57 -12 -85 -39 l-35 -34 7 -197
7 -198 -61 0 -61 0 0 275 0 275 55 0 c54 0 55 0 55 -30 l0 -30 44 31 c67 48
142 56 206 24z m-1225 -8 c11 -5 34 -23 52 -40 l32 -30 32 27 c120 101 246 86
312 -39 20 -36 22 -58 25 -247 l4 -208 -56 0 -56 0 0 173 c0 184 -7 227 -42
264 -37 39 -120 31 -174 -19 -21 -19 -21 -25 -16 -217 l5 -198 -54 -5 c-30 -3
-55 -5 -56 -4 -1 0 -4 84 -8 186 -4 102 -11 200 -17 217 -23 77 -122 87 -195
20 -22 -20 -23 -26 -23 -224 l0 -203 -55 0 -55 0 0 208 c0 114 -3 237 -7 275
l-6 67 56 0 c53 0 56 -1 62 -30 l7 -30 34 26 c65 50 138 62 199 31z m1585 -49
c0 -40 3 -164 7 -275 l6 -203 -56 0 -57 0 0 103 c0 56 -3 180 -7 275 l-6 172
56 0 57 0 0 -72z m-877 -105 c4 -91 7 -215 7 -275 l0 -108 -53 0 -54 0 -6 167
c-4 91 -7 215 -7 275 l0 108 53 0 54 0 6 -167z m-2193 132 c14 -7 35 -24 47
-37 45 -48 53 -87 60 -298 l6 -200 -34 0 c-19 0 -44 -3 -55 -6 -21 -6 -22 -3
-29 188 -10 258 -22 286 -127 276 -39 -4 -57 -12 -85 -39 l-35 -34 6 -197 7
-198 -61 0 -60 0 0 275 0 275 55 0 c54 0 55 0 55 -30 l0 -30 44 31 c68 49 141
57 206 24z m983 -142 c4 -87 7 -211 7 -275 l0 -118 -53 0 -54 0 -6 203 c-4
111 -7 235 -7 275 l0 72 53 0 54 0 6 -157z m-3217 108 c75 -34 134 -136 134
-232 l0 -39 -191 0 -192 0 6 -37 c7 -42 30 -77 71 -107 44 -33 163 -30 237 7
31 15 59 27 62 27 4 0 7 -22 7 -50 l0 -50 -52 -27 c-41 -20 -72 -27 -135 -31
-109 -6 -141 1 -197 45 -107 83 -141 254 -75 383 22 45 74 95 119 114 49 21
155 20 206 -3z m-2078 -35 c66 -34 122 -139 122 -227 l0 -39 -191 0 -192 0 6
-36 c8 -47 47 -97 93 -119 51 -24 147 -16 216 18 59 29 68 25 68 -35 0 -35 -3
-39 -52 -65 -43 -22 -70 -27 -144 -31 -113 -5 -150 6 -210 64 -64 63 -86 117
-86 215 0 119 48 209 135 255 63 34 170 34 235 0z m-725 -12 l37 -24 -20 -38
c-35 -67 -33 -66 -75 -38 -63 43 -124 28 -167 -41 -21 -36 -23 -50 -26 -215
l-4 -178 -54 0 -54 0 0 275 0 275 55 0 55 0 1 -57 c0 -58 0 -58 17 -33 28 42
90 98 114 103 37 7 80 -3 121 -29z m-533 -137 c0 -85 3 -208 6 -274 l7 -121
-56 -3 c-55 -4 -57 -3 -63 24 l-6 27 -30 -21 c-123 -88 -282 -35 -309 102 -4
24 -8 126 -9 227 l0 182 55 0 55 0 0 -172 c0 -95 5 -191 10 -213 12 -53 41
-75 97 -75 48 0 75 11 111 43 21 20 22 26 22 224 l0 203 55 0 55 0 0 -153z
m753 11 c4 -79 7 -203 7 -275 l0 -133 -53 0 -54 0 -6 143 c-4 78 -7 202 -7
275 l0 132 53 0 54 0 6 -142z m1468 -257 c25 -26 29 -37 29 -86 0 -62 -9 -86
-49 -128 -26 -28 -79 -62 -87 -55 -2 2 8 26 21 53 32 62 31 77 -5 103 -41 31
-43 90 -4 121 36 28 60 26 95 -8z"/>
<path d="M20026 32234 c-9 -22 -8 -24 9 -24 8 0 15 9 15 20 0 24 -15 27 -24 4z"/>
<path d="M20965 30833 c-239 -17 -544 -68 -750 -125 -60 -17 -121 -33 -135
-35 -14 -2 -34 -8 -45 -13 -11 -4 -58 -21 -105 -36 -47 -15 -98 -33 -115 -40
-16 -6 -41 -15 -55 -19 -13 -4 -30 -14 -38 -21 -7 -8 -24 -14 -36 -14 -13 0
-29 -7 -36 -15 -7 -8 -18 -15 -24 -15 -6 -1 -29 -9 -51 -20 -22 -11 -45 -19
-52 -20 -6 0 -13 -3 -15 -7 -3 -8 -59 -38 -232 -127 -43 -23 -89 -50 -101 -61
-12 -11 -69 -52 -126 -92 -154 -107 -230 -169 -374 -305 -163 -154 -266 -275
-386 -453 -29 -44 -57 -81 -61 -83 -5 -2 -8 -10 -8 -18 0 -8 -4 -14 -8 -14 -4
0 -13 -12 -19 -27 -7 -16 -25 -50 -41 -78 -82 -139 -155 -275 -196 -364 -138
-301 -244 -631 -296 -927 -21 -118 -22 -132 -20 -1664 0 -850 4 -1548 8 -1552
8 -8 3198 -15 3205 -8 3 3 8 599 12 1325 17 3106 20 3464 28 3472 10 10 403
20 1093 28 l511 7 8 -519 c4 -285 11 -916 15 -1403 5 -487 14 -1341 21 -1897
l13 -1013 1280 -2 c1435 -1 1888 1 1898 11 10 9 14 4799 4 5104 -7 217 -11
267 -22 267 -8 0 -14 5 -14 10 0 6 -21 10 -47 10 -27 0 -66 5 -88 11 -22 6
-56 13 -75 15 -113 14 -310 49 -310 55 0 4 -29 10 -65 14 -36 3 -65 10 -65 14
0 7 -137 31 -178 31 -12 0 -22 4 -22 9 0 5 -33 12 -72 16 -40 4 -84 13 -98 20
-14 7 -55 18 -92 25 -38 7 -68 16 -68 21 0 5 -15 9 -32 9 -18 0 -78 12 -133
26 -55 14 -131 32 -170 39 -141 27 -260 57 -263 66 -2 5 -26 9 -52 9 -27 0
-51 4 -54 9 -3 4 -39 14 -81 22 -41 7 -75 16 -75 20 0 4 -26 10 -57 14 -32 3
-67 10 -78 15 -11 6 -42 14 -70 20 -27 6 -54 15 -60 20 -5 4 -37 13 -70 18
-144 25 -241 45 -256 52 -9 5 -60 14 -115 19 -54 6 -121 15 -149 21 -27 6 -66
13 -85 17 -19 3 -38 10 -41 15 -3 5 -52 11 -110 15 -57 3 -107 10 -110 16 -4
5 -17 7 -29 4 -12 -3 -47 -1 -78 4 -32 5 -127 16 -212 24 -85 9 -200 23 -255
31 -76 13 -191 17 -485 19 -212 1 -407 0 -435 -2z"/>
<path d="M27298 26644 c2 -13 8 -24 13 -24 14 0 10 37 -4 43 -10 4 -13 -2 -9
-19z"/>
<path d="M27252 26640 c0 -14 2 -19 5 -12 2 6 2 18 0 25 -3 6 -5 1 -5 -13z"/>
<path d="M27166 26425 c4 -8 8 -15 10 -15 2 0 4 7 4 15 0 8 -4 15 -10 15 -5 0
-7 -7 -4 -15z"/>
<path d="M27281 26384 c0 -11 3 -14 6 -6 3 7 2 16 -1 19 -3 4 -6 -2 -5 -13z"/>
<path d="M27291 26304 c0 -11 3 -14 6 -6 3 7 2 16 -1 19 -3 4 -6 -2 -5 -13z"/>
<path d="M31370 30441 l0 -191 63 0 c109 1 179 48 202 138 22 82 -6 170 -67
214 -27 19 -49 24 -115 27 l-83 3 0 -191z"/>
<path d="M32021 30465 c-24 -52 -42 -98 -39 -101 3 -2 44 -4 90 -2 l85 3 -46
98 -46 97 -44 -95z"/>
<path d="M32550 30545 l0 -85 58 0 c62 1 86 13 101 53 24 63 -28 117 -114 117
l-45 0 0 -85z"/>
<path d="M35490 30420 l0 -190 63 0 c145 1 231 99 206 235 -18 99 -81 145
-198 145 l-71 0 0 -190z"/>
<path d="M36128 30429 l-46 -99 93 0 94 0 -45 97 c-24 53 -46 98 -47 99 -1 2
-23 -42 -49 -97z"/>
<path d="M31360 29515 l0 -105 54 0 c47 0 58 4 85 31 74 74 13 179 -104 179
l-35 0 0 -105z"/>
<path d="M32791 29445 c-24 -52 -42 -98 -39 -101 3 -2 44 -4 90 -2 l85 3 -46
98 -46 97 -44 -95z"/>
<path d="M33320 29525 l0 -85 58 0 c62 1 86 13 101 53 24 63 -28 117 -114 117
l-45 0 0 -85z"/>
<path d="M31876 28566 c-73 -77 -76 -242 -5 -317 54 -58 151 -27 180 59 20 59
15 171 -10 220 -41 81 -110 97 -165 38z"/>
<path d="M32857 28436 c-82 -107 -82 -106 -3 -106 l66 0 0 90 c0 50 -1 90 -3
90 -1 0 -28 -33 -60 -74z"/>
<path d="M33915 21023 c-27 -3 -55 -9 -62 -15 -11 -8 -13 -368 -13 -1837 0
-1131 4 -1832 10 -1841 15 -24 195 -27 295 -4 125 28 250 98 346 195 49 49
129 150 129 163 0 5 9 21 20 36 36 50 81 172 108 290 l26 115 4 1005 c2 609
-1 1048 -7 1115 -11 125 -40 256 -70 319 -12 23 -21 46 -21 50 0 5 -13 28 -30
53 -16 24 -30 48 -30 52 0 5 -38 47 -84 93 -78 78 -189 158 -220 158 -7 0 -27
7 -45 16 -76 38 -188 49 -356 37z"/>
<path d="M27946 16444 c-5 -12 5 -18 26 -15 4 0 5 -6 2 -13 -3 -8 -12 -12 -20
-9 -8 3 -15 0 -15 -6 -3 -20 -4 -26 -12 -39 -5 -7 0 -23 12 -39 17 -21 19 -29
9 -42 -11 -14 -11 -14 3 -4 9 7 19 10 23 6 4 -4 4 1 0 11 -6 16 -2 17 40 11
43 -7 48 -5 53 14 3 11 9 21 14 21 5 0 9 12 9 26 0 18 -4 24 -13 21 -17 -6
-42 8 -42 24 0 7 -19 20 -42 30 -35 15 -42 15 -47 3z m19 -64 c3 -5 1 -10 -4
-10 -6 0 -11 5 -11 10 0 6 2 10 4 10 3 0 8 -4 11 -10z"/>
<path d="M28196 16413 c-6 -14 -5 -15 5 -6 7 7 10 15 7 18 -3 3 -9 -2 -12 -12z"/>
<path d="M27706 16385 c-3 -8 -1 -15 4 -15 6 0 10 7 10 15 0 8 -2 15 -4 15 -2
0 -6 -7 -10 -15z"/>
<path d="M28285 16344 c-17 -12 -18 -16 -5 -24 8 -5 15 -8 15 -7 0 1 9 12 19
25 23 26 3 31 -29 6z"/>
<path d="M28107 16293 c-12 -11 -8 -21 13 -26 15 -4 20 0 20 14 0 18 -20 26
-33 12z"/>
<path d="M28015 16280 c-3 -5 1 -10 9 -10 9 0 16 5 16 10 0 6 -4 10 -9 10 -6
0 -13 -4 -16 -10z"/>
<path d="M28360 16266 c0 -8 4 -17 8 -20 4 -2 8 4 8 15 0 10 -4 19 -8 19 -4 0
-8 -6 -8 -14z"/>
<path d="M27865 16220 c3 -5 8 -10 11 -10 2 0 4 5 4 10 0 6 -5 10 -11 10 -5 0
-7 -4 -4 -10z"/>
<path d="M28177 16203 c-11 -3 -16 -10 -13 -20 3 -8 6 -17 6 -19 0 -2 5 -4 11
-4 6 0 9 7 6 15 -4 8 -1 17 5 21 7 4 8 3 4 -4 -4 -7 -2 -12 3 -12 6 0 11 7 11
15 0 15 -2 16 -33 8z"/>
<path d="M28766 16185 c-3 -8 -1 -15 4 -15 6 0 10 7 10 15 0 8 -2 15 -4 15 -2
0 -6 -7 -10 -15z"/>
<path d="M27960 16140 c-8 -5 -13 -10 -10 -11 33 -6 50 -4 50 8 0 15 -19 17
-40 3z"/>
<path d="M27910 16126 c0 -2 9 -6 20 -9 11 -3 18 -1 14 4 -5 9 -34 13 -34 5z"/>
<path d="M24917 21290 c-106 -18 -226 -64 -302 -116 -35 -24 -110 -98 -150
-148 -16 -21 -42 -53 -57 -71 -16 -18 -28 -38 -28 -44 0 -7 -7 -23 -16 -37 -9
-14 -23 -50 -31 -82 -8 -31 -19 -73 -25 -92 -14 -50 -17 -604 -7 -1480 9 -735
9 -746 -11 -837 -22 -96 -21 -154 5 -218 9 -23 10 -47 2 -98 -13 -82 3 -127
52 -148 17 -8 31 -17 31 -22 0 -4 9 -18 21 -30 30 -31 39 -60 39 -121 0 -66
41 -183 76 -213 13 -12 55 -41 92 -63 92 -55 86 -50 208 -167 100 -95 142
-124 217 -152 21 -8 27 -17 27 -40 0 -57 6 -61 86 -61 l74 0 0 48 c0 52 -4 48
129 118 75 40 169 120 226 193 22 28 51 54 65 57 52 14 136 56 163 82 52 49
72 102 87 231 12 100 24 123 91 166 31 19 61 47 68 61 18 40 14 91 -10 113
-15 13 -19 26 -14 41 4 12 8 36 10 53 2 18 7 58 11 90 4 33 3 62 -2 65 -12 9
-34 66 -45 117 -4 22 -9 445 -9 940 -1 1029 -7 1201 -40 1290 -12 33 -25 71
-28 85 -3 14 -16 42 -29 62 -12 21 -23 42 -23 48 0 33 -141 191 -211 236 -24
16 -50 35 -57 41 -7 7 -20 13 -27 13 -8 0 -31 10 -52 23 -39 23 -83 37 -188
62 -66 16 -335 19 -418 5z"/>
<path d="M16570 17405 c0 -8 5 -24 12 -34 10 -16 14 -17 25 -5 11 10 11 18 3
34 -13 23 -40 27 -40 5z"/>
<path d="M16463 17289 c-16 -6 -23 -16 -22 -31 2 -23 2 -23 6 -1 3 15 13 23
31 25 15 2 23 6 17 9 -5 4 -20 3 -32 -2z"/>
<path d="M16400 17265 c0 -8 7 -15 15 -15 9 0 12 6 9 15 -4 8 -10 15 -15 15
-5 0 -9 -7 -9 -15z"/>
<path d="M16584 17141 c4 -5 0 -12 -6 -14 -8 -4 -7 -6 3 -6 9 -1 19 6 23 14 3
9 0 15 -10 15 -8 0 -13 -4 -10 -9z"/>
<path d="M16022 17128 c6 -18 28 -21 28 -4 0 9 -7 16 -16 16 -9 0 -14 -5 -12
-12z"/>
<path d="M16100 17008 c1 -29 15 -36 27 -12 10 21 9 24 -8 24 -10 0 -19 -6
-19 -12z"/>
<path d="M16170 16990 c-23 -18 -24 -20 -9 -35 14 -14 20 -15 38 -3 22 13 25
49 6 54 -5 2 -21 -5 -35 -16z"/>
<path d="M16724 16994 c3 -9 6 -18 6 -20 0 -3 4 -3 10 1 11 7 2 35 -12 35 -6
0 -7 -7 -4 -16z"/>
<path d="M16453 16954 c-2 -7 5 -22 16 -33 17 -17 25 -19 41 -11 11 6 20 7 20
3 0 -4 5 -2 11 4 8 8 8 17 1 29 -12 22 -81 28 -89 8z"/>
<path d="M16344 16875 c11 -8 24 -15 30 -15 5 0 1 7 -10 15 -10 8 -23 14 -29
14 -5 0 -1 -6 9 -14z"/>
<path d="M20340 16441 c0 -12 29 -23 42 -15 6 4 5 10 -3 15 -18 11 -39 11 -39
0z"/>
<path d="M21486 16392 c-2 -4 -1 -14 5 -22 7 -12 9 -10 9 8 0 23 -5 28 -14 14z"/>
<path d="M20200 16384 c0 -5 6 -18 13 -28 13 -18 14 -18 21 0 4 10 4 15 0 11
-4 -4 -13 1 -20 11 -7 9 -14 12 -14 6z"/>
<path d="M20438 16353 c-8 -33 6 -78 26 -81 13 -3 17 0 14 9 -3 8 -2 23 2 34
9 24 -5 55 -24 55 -8 0 -16 -8 -18 -17z"/>
<path d="M20531 16353 c-1 -16 3 -21 14 -17 8 4 15 10 15 16 0 5 -4 7 -9 4 -5
-4 -12 0 -14 6 -3 7 -6 3 -6 -9z"/>
<path d="M21458 16362 c-10 -2 -18 -8 -18 -13 0 -6 8 -8 19 -4 21 6 38 -21 18
-28 -7 -2 -9 -8 -5 -12 4 -4 15 -2 23 5 9 7 12 16 7 19 -5 3 -13 13 -18 21 -5
9 -17 14 -26 12z"/>
<path d="M19620 16321 c0 -25 6 -27 13 -6 4 8 2 17 -3 20 -6 4 -10 -3 -10 -14z"/>
<path d="M20239 16338 c-6 -13 -6 -58 -1 -58 4 0 8 14 8 30 1 25 -2 38 -7 28z"/>
<path d="M20197 16323 c-12 -12 -7 -33 7 -33 9 0 14 9 13 20 -1 20 -9 25 -20
13z"/>
<path d="M19921 16294 c0 -11 3 -14 6 -6 3 7 2 16 -1 19 -3 4 -6 -2 -5 -13z"/>
<path d="M20485 16301 c-9 -16 9 -20 23 -5 10 12 10 14 -2 14 -8 0 -17 -4 -21
-9z"/>
<path d="M22133 16303 c-7 -2 -13 -11 -13 -19 0 -8 6 -14 13 -14 14 1 47 24
47 34 0 7 -29 7 -47 -1z"/>
<path d="M19890 16292 c0 -7 -7 -12 -15 -12 -8 0 -15 -4 -15 -10 0 -5 7 -10
15 -10 17 0 32 27 21 37 -3 4 -6 1 -6 -5z"/>
<path d="M21150 16269 c0 -5 5 -7 10 -4 6 3 10 8 10 11 0 2 -4 4 -10 4 -5 0
-10 -5 -10 -11z"/>
<path d="M20037 16264 c-7 -12 21 -42 32 -36 13 8 11 -17 -4 -31 -23 -24 -19
-29 22 -25 35 3 38 6 38 33 0 22 -5 30 -18 30 -10 0 -22 7 -27 15 -9 13 -11
13 -19 1 -7 -11 -10 -10 -13 5 -2 12 -6 15 -11 8z"/>
<path d="M19754 16202 c-22 -15 -42 -31 -44 -37 -3 -5 -8 -9 -11 -8 -3 1 -6
-5 -6 -13 0 -23 45 -29 67 -9 11 10 20 24 20 32 0 7 10 13 21 13 19 0 20 -2 8
-17 -12 -15 -12 -16 4 -10 10 4 21 7 23 7 14 0 0 40 -19 53 -22 14 -26 13 -63
-11z m45 -5 c-2 -1 -11 -8 -20 -15 -13 -9 -16 -9 -16 3 0 8 9 15 20 15 11 0
18 -1 16 -3z"/>
<path d="M21585 16221 c-3 -5 -1 -12 4 -15 5 -3 11 1 15 9 6 16 -9 21 -19 6z"/>
<path d="M21640 16207 c0 -30 9 -39 25 -24 9 8 10 18 4 30 -14 24 -29 21 -29
-6z"/>
<path d="M21239 16215 c-1 -3 -2 -8 -3 -12 -1 -5 -5 -14 -10 -21 -10 -17 -1
-26 19 -19 18 8 20 37 3 37 -9 0 -8 4 2 10 10 6 11 10 3 10 -7 0 -14 -2 -14
-5z"/>
<path d="M21272 16195 c0 -16 2 -22 5 -12 2 9 2 23 0 30 -3 6 -5 -1 -5 -18z"/>
<path d="M20007 16181 c-5 -22 1 -33 14 -25 12 7 12 44 0 44 -5 0 -11 -9 -14
-19z"/>
<path d="M21361 16187 c-7 -10 -20 -17 -27 -17 -8 0 -14 -5 -14 -11 0 -5 -3
-8 -7 -6 -5 3 -19 0 -33 -5 -20 -7 -22 -11 -10 -18 25 -16 53 -11 84 13 17 14
27 30 25 42 -4 17 -5 17 -18 2z"/>
<path d="M21868 16181 c-13 -13 -14 -19 -5 -31 7 -9 19 -15 27 -15 8 1 25 -3
37 -8 24 -11 46 1 64 35 9 16 7 18 -14 13 -17 -5 -26 -2 -30 9 -8 20 -56 18
-79 -3z"/>
<path d="M20435 16171 c-19 -8 -19 -8 3 -20 19 -10 22 -9 22 9 0 11 -1 20 -2
19 -2 0 -12 -4 -23 -8z"/>
<path d="M21556 16171 c-4 -7 -5 -15 -2 -18 9 -9 19 4 14 18 -4 11 -6 11 -12
0z"/>
<path d="M20080 16140 c-12 -8 -10 -10 8 -10 13 0 20 4 17 10 -7 12 -6 12 -25
0z"/>
<path d="M20930 16136 c0 -14 29 -31 38 -21 6 6 -18 35 -29 35 -5 0 -9 -6 -9
-14z"/>
<path d="M21686 16134 c-4 -9 -4 -19 -1 -22 2 -3 7 3 11 12 4 9 4 19 1 22 -2
3 -7 -3 -11 -12z"/>
<path d="M20045 16130 c-3 -5 -1 -10 4 -10 6 0 11 5 11 10 0 6 -2 10 -4 10 -3
0 -8 -4 -11 -10z"/>
<path d="M20320 16124 c0 -8 5 -12 10 -9 6 3 10 10 10 16 0 5 -4 9 -10 9 -5 0
-10 -7 -10 -16z"/>
<path d="M22520 16128 c0 -11 31 -10 50 2 10 6 5 9 -18 8 -18 -1 -32 -5 -32
-10z"/>
<path d="M23800 16130 c0 -5 4 -10 9 -10 6 0 13 5 16 10 3 6 -1 10 -9 10 -9 0
-16 -4 -16 -10z"/>
<path d="M24415 16130 c-3 -5 -1 -10 4 -10 6 0 11 5 11 10 0 6 -2 10 -4 10 -3
0 -8 -4 -11 -10z"/>
<path d="M31425 14436 c-16 -8 -42 -26 -56 -42 -78 -85 -56 -261 37 -300 19
-8 68 -14 114 -14 l80 0 0 174 0 174 -31 11 c-43 15 -107 13 -144 -3z"/>
<path d="M26775 14376 c-126 -55 -140 -284 -21 -340 23 -11 61 -16 115 -16
l81 0 0 173 0 173 -33 12 c-43 16 -104 15 -142 -2z"/>
<path d="M22455 14316 c-16 -8 -42 -26 -56 -42 -78 -85 -56 -261 37 -300 19
-8 68 -14 114 -14 l80 0 0 174 0 174 -31 11 c-43 15 -107 13 -144 -3z"/>
<path d="M19750 14478 c0 -40 3 -97 6 -125 l7 -53 43 0 c154 0 235 77 190 183
-21 50 -62 67 -166 67 l-80 0 0 -72z"/>
<path d="M19760 14059 l0 -132 113 5 c127 6 167 20 193 70 35 67 12 135 -57
170 -26 14 -59 18 -141 18 l-108 0 0 -131z"/>
<path d="M30813 14421 c-36 -23 -59 -53 -69 -94 l-7 -29 134 7 c74 4 136 9
137 11 9 7 -21 73 -43 94 -35 32 -109 38 -152 11z"/>
<path d="M23923 14331 c-36 -23 -59 -53 -69 -94 l-6 -28 133 7 c74 4 136 8
137 10 9 7 -21 73 -43 94 -35 32 -109 38 -152 11z"/>
<path d="M21833 14301 c-36 -23 -59 -53 -69 -94 l-6 -28 133 7 c74 4 136 8
137 10 9 7 -21 73 -43 94 -35 32 -109 38 -152 11z"/>
<path d="M36530 36575 c0 -17 9 -19 28 -6 11 7 10 10 -3 15 -23 9 -25 8 -25
-9z"/>
</g>
</svg>
